<svg xmlns="http://www.w3.org/2000/svg" width="338.267" height="64.253"><defs><clipPath clipPathUnits="userSpaceOnUse" id="a"><path d="M0 48.189h253.7V0H0z"/></clipPath></defs><path d="M28.77 21.652l-2.915-5.696 17.059.002 6.622-8.594H21.504l-13.066 16.8-4.148.194L12.987 38.2l16.525-15.029-5.264.247z" fill="#29b2b6"/><path d="M29.645 23.362l-.216-.424-1.067.015-12.793 17.142.184-.008-4.546.216 8.696 13.842 16.528-15.032-5.221.248 17.224-5.839 8.323-10.16h-4.612z" fill="#29b2b6"/><path d="M0 23.172L20.69 63.99l31.455-40.628-3.792-7.406-26.65 34.402-5.199-10.262 13.141-16.734-3.79-7.406-13.092 16.976-4.344-8.674L21.504 7.364 17.843.144z" fill="#e5194d"/><g clip-path="url(#a)" transform="matrix(1.33333 0 0 -1.33333 0 64.253)" fill="#221f1f"><path d="M72.946 5.572v-4.38h.047c.607 0 1.064.027 1.372.083.306.054.6.175.873.36.276.184.495.43.658.735.163.305.245.64.245 1.008 0 .46-.132.877-.39 1.25-.26.372-.57.623-.934.752-.36.127-.848.192-1.458.192zm-.819.8h1.454c1.148 0 2.005-.306 2.564-.913.561-.608.841-1.302.841-2.08 0-.787-.29-1.484-.868-2.088-.58-.605-1.424-.906-2.529-.906h-1.462zm11.563-.001h.809V.385h-.809zm13.683-.959l-.606-.598c-.612.6-1.319.9-2.12.9-.7 0-1.285-.227-1.753-.677-.465-.45-.699-1.015-.699-1.689 0-.592.226-1.124.68-1.599.45-.475 1.076-.712 1.87-.712 1.195 0 1.945.52 2.252 1.557h-1.615v.816h2.551c0-.409-.029-.736-.083-.98a2.938 2.938 0 0 0-.34-.808 2.962 2.962 0 0 0-.689-.79A2.726 2.726 0 0 0 95.9.333c-.326-.1-.718-.15-1.172-.15-1.033 0-1.857.324-2.474.974-.616.65-.922 1.392-.922 2.227 0 .881.313 1.63.942 2.247.632.62 1.394.927 2.29.927.533 0 1.018-.08 1.46-.242.44-.16.89-.463 1.35-.904m7.392.959h.81V.385h-.81zm7.532 0h3.662v-.817h-1.428V.385h-.81v5.169h-1.424zm12.394-1.639l-.956-2.135h1.925zm.004 1.87l2.825-6.218h-.856l-.696 1.532h-2.539l-.687-1.532h-.85zm9.469-.231h.808V1.192h1.95V.385h-2.758zm21.443-.668l-.66-.53a2.751 2.751 0 0 1-.479.406c-.14.09-.346.134-.615.134-.295 0-.53-.068-.715-.199a.605.605 0 0 1-.273-.513c0-.182.078-.34.24-.48.158-.139.43-.292.815-.457.385-.166.683-.319.898-.462a2.27 2.27 0 0 0 .527-.47c.137-.173.241-.355.31-.545.065-.192.098-.393.098-.606 0-.498-.18-.923-.542-1.273A1.816 1.816 0 0 0 153.9.182c-.502 0-.945.137-1.328.412-.384.273-.68.685-.885 1.233l.818.23c.297-.673.751-1.01 1.368-1.01.296 0 .543.09.74.267a.873.873 0 0 1 .298.675.904.904 0 0 1-.157.49 1.412 1.412 0 0 1-.386.405c-.153.105-.398.227-.733.365a5.058 5.058 0 0 0-.772.378 1.95 1.95 0 0 0-.47.407 1.751 1.751 0 0 0-.29.473 1.366 1.366 0 0 0-.093.502c0 .428.174.795.518 1.096.345.303.763.453 1.253.453.326 0 .658-.07.992-.21.334-.142.615-.357.836-.645m12.414-2.328c0 .66-.238 1.217-.716 1.669-.475.452-1.06.679-1.757.679-.66 0-1.227-.231-1.7-.691a2.233 2.233 0 0 1-.705-1.657c0-.653.24-1.207.725-1.659.484-.452 1.077-.679 1.78-.679.643 0 1.2.232 1.668.692.47.463.704 1.011.704 1.646m-5.734.038c0 .863.326 1.605.978 2.22.652.618 1.435.926 2.35.926a3.21 3.21 0 0 0 2.306-.932c.647-.622.968-1.36.968-2.214 0-.904-.317-1.67-.956-2.293-.638-.626-1.42-.937-2.348-.937-.915 0-1.692.314-2.334.943a3.085 3.085 0 0 0-.964 2.287m13.562 2.958h.808V1.192h1.949V.385h-2.757zm9.237-.01h.817v-3.68c0-.545.13-.966.393-1.263.263-.297.632-.446 1.11-.446.477 0 .848.137 1.113.41.264.275.397.661.397 1.16v3.82h.817V2.596c0-.733-.21-1.318-.627-1.757-.417-.438-.975-.658-1.67-.658-.711 0-1.28.223-1.71.667-.427.446-.64 1.102-.64 1.97zm11.247.01h3.66v-.817h-1.427V.385h-.808v5.169h-1.425zm10.342 0h.808V.385h-.808zm13.382-2.996c0 .66-.24 1.217-.714 1.669-.476.452-1.061.679-1.76.679-.66 0-1.224-.231-1.696-.691a2.228 2.228 0 0 1-.707-1.657c0-.653.24-1.207.725-1.659.484-.452 1.078-.679 1.778-.679.645 0 1.203.232 1.67.692.469.463.704 1.011.704 1.646m-5.733.038c0 .863.325 1.605.978 2.22.65.618 1.435.926 2.348.926.893 0 1.664-.311 2.308-.932.646-.622.968-1.36.968-2.214 0-.904-.318-1.67-.957-2.293-.638-.626-1.42-.937-2.347-.937-.914 0-1.692.314-2.334.943a3.081 3.081 0 0 0-.964 2.287M227.72 6.61l4.426-4.549v4.31h.818V.107l-4.427 4.53V.383h-.817zm15.896-.907l-.663-.53a2.678 2.678 0 0 1-.478.406c-.14.09-.345.134-.614.134-.295 0-.532-.068-.716-.199a.605.605 0 0 1-.275-.513c0-.182.08-.34.24-.48.16-.139.433-.292.817-.457.384-.166.684-.319.897-.462.214-.142.39-.299.528-.47a1.88 1.88 0 0 0 .31-.545 1.9 1.9 0 0 0 .098-.606c0-.498-.18-.923-.542-1.273a1.819 1.819 0 0 0-1.315-.526c-.5 0-.943.137-1.325.412-.384.273-.679.685-.887 1.233l.82.23c.296-.673.751-1.01 1.366-1.01.296 0 .544.09.742.267a.872.872 0 0 1 .297.675.92.92 0 0 1-.156.49 1.44 1.44 0 0 1-.386.405 4.284 4.284 0 0 1-.734.365 5.243 5.243 0 0 0-.774.378c-.18.113-.337.25-.47.407-.13.16-.227.316-.288.473a1.346 1.346 0 0 0-.094.502c0 .428.174.795.52 1.096.342.303.762.453 1.253.453.325 0 .657-.07.99-.21.335-.142.616-.357.84-.645M39.108 30.668L15.516.196H36.45l23.64 30.472zm107.613-18.346h-3.664v18.334h3.664zm12.405 0h-3.663v18.334h3.663zm-66.325 0h-3.663v18.334h3.663zm104.886 0h-3.663v18.334h3.663zm-76.859 18.335h14.715v-3.663h-14.715zm0-7.335h14.715v-3.664h-14.715zm0-7.336h14.715v-3.664h-14.715zm108.237 14.67h14.714v-3.663h-14.714zm0-7.334h14.714v-3.664h-14.714zm0-7.336h14.714v-3.664h-14.714zm-76.191 1.16l-3.869 3.72v5.025l3.869-3.72zm56.272-4.824h-3.663v18.334h3.663zm12.406 0h-3.664v18.334h3.664zm-6.252 4.824l-3.87 3.72v5.025l3.87-3.72zm-37.052 1.604h1.116v.026h6.713c.15.733.223 1.645.223 2.782v.464h-8.052z"/><path d="M181.715 17.21a4.596 4.596 0 0 0-.964-.955c-.954-.677-2.217-1.033-3.822-1.033-2.144.005-3.742.64-4.916 1.895-1.201 1.294-1.774 2.688-1.777 4.26.005 1.83.599 3.295 1.824 4.509 1.222 1.208 2.723 1.803 4.592 1.807 2.13-.004 3.974-.796 5.618-2.441l.317-.318 2.347 2.366-.34.33c-1.32 1.296-2.628 2.2-3.94 2.69-1.288.485-2.704.725-4.243.725-2.612.003-4.887-.938-6.722-2.791-1.843-1.844-2.784-4.14-2.78-6.77-.002-2.508.916-4.773 2.708-6.702 1.812-1.963 4.27-2.943 7.255-2.938 1.308 0 2.446.146 3.419.45a7.975 7.975 0 0 1 2.734 1.517c.838.7 1.519 1.494 2.029 2.39.199.35.354.68.504 1.01zM62.83 30.664h3.967l5.33-9.358v-8.872zm20.262 0h-3.966l-5.33-9.358v-8.872zm21.571-8.941l2.507 2.089c-1.734.747-2.489 1.182-2.489 2.395 0 1.405 1.052 2.064 2.193 2.064 1.183 0 2.634-.63 3.182-2.054l1.945 1.622.06.05c-1.438 2.768-4.089 3.19-5.057 3.19-3.069 0-5.307-1.887-5.307-5.09 0-.922.131-1.8.833-2.678.492-.598 1.193-1.088 2.133-1.588m4.16 1.363l-2.565-2.14.703-.312c1.712-.747 2.942-1.318 2.942-3.027 0-1.362-.922-2.898-2.984-2.898-2.282 0-3.557 2.567-3.907 3.532l-2.39-1.993c1.535-4.563 5.507-4.348 6.252-4.348 3.511 0 6.276 2.15 6.276 5.97 0 1.008-.174 1.975-.965 2.94-.583.729-1.546 1.43-3.362 2.276m140.498 5.685v-1.583c.914-.018 1.374.247 1.374.796a.7.7 0 0 1-.16.471.828.828 0 0 1-.429.25c-.18.044-.442.066-.785.066m-.62.549h.983c.49 0 .89-.122 1.196-.365.307-.243.462-.556.462-.935 0-.305-.099-.572-.298-.806-.2-.233-.51-.396-.932-.491l1.32-1.945h-.71l-1.262 1.868h-.139v-1.868h-.62z"/><path d="M253.425 27.049h-.25a3.112 3.112 0 0 0-3.11-3.107 3.112 3.112 0 0 0-3.105 3.107 3.112 3.112 0 0 0 3.106 3.107 3.112 3.112 0 0 0 3.109-3.107h.5a3.608 3.608 0 1 1-7.215-.001 3.608 3.608 0 0 1 7.215 0z"/></g></svg>