<svg xmlns="http://www.w3.org/2000/svg" viewBox="0 0 582.48 125.28" xmlns:vectornator="http://vectornator.io" clip-rule="evenodd" stroke-linecap="round" stroke-linejoin="round"><g vectornator:layerName="Untitled"><path d="M169.128 103.529v9.904h.105c1.374 0 2.408-.062 3.103-.188a5.158 5.158 0 0 0 1.975-.81 4.541 4.541 0 0 0 1.487-1.665 4.752 4.752 0 0 0 .555-2.279c0-1.04-.298-1.983-.883-2.827-.588-.841-1.29-1.408-2.112-1.7-.815-.287-1.917-.435-3.296-.435h-.934zm-1.853-1.806h3.288c2.596 0 4.533.689 5.798 2.062 1.268 1.374 1.902 2.944 1.902 4.706 0 1.777-.656 3.351-1.963 4.719-1.312 1.366-3.22 2.049-5.72 2.049h-3.305v-13.536zm26.146-.001h1.829v13.536h-1.829v-13.536zm30.939 2.169l-1.371 1.352c-1.383-1.356-2.982-2.032-4.792-2.032-1.585 0-2.906.51-3.964 1.528-1.053 1.018-1.581 2.294-1.581 3.82 0 1.338.511 2.541 1.535 3.615 1.021 1.073 2.436 1.609 4.231 1.609 2.703 0 4.398-1.172 5.091-3.519h-3.652v-1.846h5.768c0 .925-.064 1.664-.188 2.217-.123.549-.382 1.159-.767 1.826a6.73 6.73 0 0 1-1.558 1.786 6.15 6.15 0 0 1-2.084 1.128c-.737.228-1.625.34-2.65.34-2.336 0-4.2-.733-5.595-2.203-1.394-1.469-2.085-3.147-2.085-5.035 0-1.991.707-3.685 2.131-5.081 1.428-1.4 3.151-2.097 5.178-2.097 1.204 0 2.301.181 3.299.547.993.365 2.014 1.047 3.054 2.045m16.714-2.169h1.831v13.536h-1.831v-13.536zm17.033 0h8.28v1.848h-3.228v11.688h-1.833V103.57h-3.219v-1.848zm28.025 3.706l-2.162 4.827h4.351l-2.189-4.827zm.009-4.226l6.387 14.057h-1.936l-1.572-3.463h-5.742l-1.554 3.463h-1.923l6.34-14.057zm21.409.52h1.826v11.71h4.41v1.826h-6.236v-13.536zm48.486 1.511l-1.492 1.199c-.401-.41-.76-.715-1.083-.919-.318-.2-.783-.302-1.391-.302-.667 0-1.201.152-1.616.451-.417.3-.618.686-.618 1.159 0 .411.177.77.541 1.086.359.314.973.659 1.844 1.032.872.375 1.545.721 2.031 1.044.485.322.881.678 1.192 1.064.31.391.543.802.697 1.232.151.433.226.888.226 1.37 0 1.126-.41 2.086-1.226 2.878-.819.793-1.808 1.188-2.969 1.188-1.135 0-2.138-.308-3.003-.929-.868-.618-1.537-1.55-2.001-2.789l1.848-.521c.674 1.524 1.701 2.286 3.094 2.286.669 0 1.228-.204 1.674-.606a1.97 1.97 0 0 0 .673-1.526c0-.364-.117-.734-.356-1.105a3.118 3.118 0 0 0-.872-.917c-.344-.238-.898-.515-1.656-.826-.757-.311-1.343-.594-1.746-.854a4.428 4.428 0 0 1-1.064-.921 3.995 3.995 0 0 1-.655-1.069 3.09 3.09 0 0 1-.209-1.135c0-.969.393-1.798 1.17-2.48.78-.684 1.725-1.024 2.833-1.024.738 0 1.488.159 2.243.477.756.32 1.392.806 1.891 1.457m28.07 5.264c0-1.493-.538-2.751-1.618-3.773-1.075-1.023-2.399-1.535-3.973-1.535-1.492 0-2.773.521-3.842 1.561-1.064 1.042-1.594 2.29-1.594 3.747 0 1.478.544 2.729 1.638 3.752 1.095 1.022 2.436 1.534 4.024 1.534 1.457 0 2.714-.523 3.773-1.565 1.063-1.047 1.592-2.285 1.592-3.721m-12.966-.086c0-1.952.737-3.628 2.213-5.019 1.473-1.397 3.243-2.093 5.313-2.093 2.017 0 3.755.702 5.215 2.106 1.461 1.407 2.188 3.076 2.188 5.006 0 2.045-.717 3.776-2.161 5.185-1.443 1.415-3.211 2.119-5.309 2.119-2.069 0-3.827-.711-5.277-2.133-1.453-1.421-2.182-3.146-2.182-5.171m30.664-6.689h1.826v11.71h4.407v1.826h-6.233v-13.536zm20.887.022h1.848v8.32c0 1.232.297 2.184.887 2.858.595.671 1.429 1.007 2.514 1.007 1.075 0 1.914-.31 2.513-.928.598-.62.898-1.492.898-2.619v-8.638h1.849v8.51c0 1.658-.476 2.981-1.42 3.975-.943.989-2.204 1.486-3.777 1.486-1.607 0-2.892-.503-3.864-1.508-.967-1.007-1.448-2.491-1.448-4.452v-8.011zm25.43-.022h8.276v1.848h-3.226v11.688h-1.828V103.57h-3.222v-1.848zm23.384 0h1.826v13.536h-1.826v-13.536zm30.258 6.775c0-1.493-.54-2.751-1.613-3.773-1.078-1.023-2.401-1.535-3.978-1.535-1.492 0-2.77.521-3.838 1.561-1.068 1.042-1.597 2.29-1.597 3.747 0 1.478.545 2.729 1.637 3.752 1.096 1.022 2.438 1.534 4.022 1.534 1.459 0 2.72-.523 3.778-1.565 1.058-1.047 1.589-2.285 1.589-3.721m-12.964-.086c0-1.952.735-3.628 2.213-5.019 1.473-1.397 3.244-2.093 5.309-2.093 2.02 0 3.762.702 5.219 2.106 1.46 1.407 2.189 3.076 2.189 5.006 0 2.045-.72 3.776-2.164 5.185-1.443 1.415-3.211 2.119-5.306 2.119-2.067 0-3.827-.711-5.277-2.133-1.456-1.421-2.183-3.146-2.183-5.171m30.289-7.229l10.008 10.286v-9.745h1.849v14.163l-10.008-10.241v9.614h-1.849v-14.077zm35.944 2.051l-1.5 1.199c-.397-.41-.755-.715-1.079-.919-.318-.2-.782-.302-1.39-.302-.667 0-1.203.152-1.618.451-.42.3-.623.686-.623 1.159 0 .411.182.77.544 1.086.361.314.978.659 1.846 1.032.87.375 1.548.721 2.029 1.044.483.322.881.678 1.194 1.064.314.391.543.802.699 1.232.147.433.222.888.222 1.37 0 1.126-.408 2.086-1.225 2.878-.82.793-1.806 1.188-2.972 1.188-1.131 0-2.134-.308-2.997-.929-.867-.618-1.534-1.55-2.005-2.789l1.851-.521c.673 1.524 1.702 2.286 3.091 2.286.669 0 1.23-.204 1.678-.606.446-.402.671-.909.671-1.526 0-.364-.119-.734-.353-1.105a3.187 3.187 0 0 0-.873-.917c-.348-.238-.9-.515-1.658-.826-.757-.311-1.34-.594-1.751-.854a4.57 4.57 0 0 1-1.061-.921c-.294-.36-.515-.715-.652-1.069a3.03 3.03 0 0 1-.212-1.135c0-.969.393-1.798 1.172-2.48.776-.684 1.725-1.024 2.835-1.024.737 0 1.487.159 2.24.477.757.32 1.393.806 1.897 1.457M335.941 88.266h-8.285V46.81h8.285v41.456zm28.049 0h-8.283V46.81h8.283v41.456zm-149.969 0h-8.282V46.81h8.282v41.456zm237.159 0h-8.283V46.81h8.283v41.456zM277.394 46.809h33.272v8.283h-33.272v-8.283zm0 16.585h33.272v8.285h-33.272v-8.285zm0 16.587h33.272v8.285h-33.272v-8.285zm244.737-33.17h33.27v8.283h-33.27v-8.283zm0 16.583h33.27v8.285h-33.27v-8.285zm0 16.587h33.27v8.285h-33.27v-8.285zm-172.277-2.623l-8.749-8.41V57.583l8.749 8.411v11.363zM477.09 88.266h-8.283V46.81h8.283v41.456zm28.052 0h-8.285V46.81h8.285v41.456zm-14.137-10.908l-8.748-8.41V57.583l8.748 8.411v11.363zm-83.777-3.626h2.523v-.059h15.179c.335-1.656.503-3.719.503-6.289v-1.05h-18.205v7.398z" fill="#221f1f"/><path d="M415.066 77.212c-.643.831-1.347 1.572-2.179 2.162-2.157 1.53-5.012 2.336-8.642 2.336-4.848-.01-8.462-1.449-11.116-4.286-2.716-2.925-4.01-6.077-4.017-9.63.011-4.14 1.353-7.452 4.123-10.197 2.765-2.73 6.158-4.075 10.382-4.087 4.818.012 8.987 1.802 12.704 5.52l.717.721 5.306-5.35-.766-.747c-2.988-2.93-5.945-4.975-8.908-6.086-2.915-1.093-6.116-1.636-9.596-1.636-5.906-.007-11.052 2.12-15.2 6.311-4.167 4.17-6.293 9.358-6.285 15.304-.004 5.675 2.071 10.796 6.123 15.157 4.096 4.438 9.654 6.655 16.405 6.644 2.956 0 5.528-.33 7.73-1.018 2.201-.689 4.275-1.839 6.18-3.429 1.897-1.584 3.436-3.378 4.589-5.408.45-.788.802-1.537 1.139-2.28h-8.689zM146.254 46.793h8.969l12.052 21.161v20.061l-21.021-41.222zm45.814 0h-8.967l-12.052 21.161v20.061l21.019-41.222zm48.775 20.218l5.668-4.723c-3.919-1.69-5.628-2.674-5.628-5.417 0-3.175 2.38-4.666 4.959-4.666 2.674 0 5.955 1.425 7.194 4.644l4.399-3.668.135-.114c-3.25-6.256-9.246-7.212-11.434-7.212-6.938 0-11.999 4.268-11.999 11.511 0 2.084.296 4.069 1.884 6.055 1.112 1.351 2.696 2.459 4.822 3.59m9.407-3.083l-5.802 4.835c.515.23 1.04.466 1.59.71 3.871 1.689 6.653 2.978 6.653 6.846 0 3.078-2.084 6.55-6.748 6.55-5.158 0-8.042-5.805-8.832-7.987l-5.408 4.507c3.474 10.32 12.454 9.832 14.139 9.832 7.938 0 14.191-4.862 14.191-13.5 0-2.278-.392-4.464-2.18-6.645-1.32-1.65-3.497-3.235-7.603-5.147m317.682-12.855v3.578c2.067.042 3.106-.557 3.106-1.798 0-.435-.125-.788-.364-1.066-.242-.276-.571-.464-.967-.564-.406-.099-1-.15-1.775-.15m-1.404-1.241h2.225c1.107 0 2.01.275 2.703.824.696.55 1.047 1.258 1.047 2.115 0 .689-.225 1.294-.675 1.822-.452.526-1.154.895-2.107 1.11l2.984 4.397h-1.606l-2.854-4.223h-.313v4.223h-1.404V49.833z" fill="#221f1f"/><path fill="#221f1f" d="M577.21 54.968h-.565a7.036 7.036 0 0 1-7.031 7.025 7.034 7.034 0 0 1-7.021-7.025 7.034 7.034 0 0 1 7.021-7.026 7.037 7.037 0 0 1 7.031 7.026h1.13a8.16 8.16 0 0 0-8.161-8.157c-4.5 0-8.152 3.652-8.152 8.157a8.156 8.156 0 0 0 8.152 8.156c4.507 0 8.161-3.651 8.161-8.156h-.565z"/><path d="M89.648 20.528H42.77L20.92 48.62l-6.94.326 14.546 23.15L56.163 46.96l-8.804.413L78.256 35.31l11.392-14.782z" fill="#25b1b6"/><path d="M102.867 45.884l-48.628.713-21.395 28.667.31-.013-7.605.361 14.545 23.146 27.64-25.137-8.731.414 28.8-9.764 15.064-18.387z" fill="#25b1b6"/><path d="M103.168 47.28L96.93 34.898l-46.88-.003 6.335 12.385h46.783z" fill="#fff"/><path d="M140.795 47.28l-6.239-12.382-46.885-.003 6.34 12.385h46.784zM89.648 20.528L83.508 8.45l-46.935-.002 6.158 12.08h46.917z" fill="#fff"/><path d="M28.153 63.282l-7.268-14.505L42.77 20.528 36.648 8.449 6.808 46.961l34.602 68.264 52.6-67.945-6.338-12.386-44.568 57.532-8.694-17.162L56.385 47.28l-6.336-12.386-21.896 28.388z" fill="#e5194d"/><path d="M94.011 47.28l-52.602 67.946h46.674l52.712-67.946H94.011z" fill="#221f1f"/></g></svg>