<?xml version="1.0" encoding="utf-8"?><svg xmlns="http://www.w3.org/2000/svg" xmlns:xlink="http://www.w3.org/1999/xlink"><symbol viewBox="0 0 192 192" id="anim-furniture" xmlns="http://www.w3.org/2000/svg"><path d="M60 19.2c-7.4 2.9-15 10.5-17.8 18.1-1.9 4.9-2.2 7.9-2.2 20.4v14.5l-2.2-.6c-6.3-1.9-10.7-1.8-15.2.4-11.6 5.6-13.8 23.3-4 31.9l3.4 3v19.6c0 26 .2 26.5 13 26.5h6.9l.3 10.7.3 10.8 5.9.3c3.2.2 6.3-.1 6.8-.6s1.6-3.8 2.4-7.3c.8-3.5 1.9-8.1 2.5-10.2l1-3.7h69.8l1 3.7c.6 2.1 1.7 6.7 2.5 10.2.8 3.5 1.9 6.8 2.4 7.3s3.6.8 6.8.6l5.9-.3.3-10.8.3-10.7h6.9c12.8 0 13-.5 13-26.3v-19.5l3.9-3.9c6.7-6.7 7.7-16.2 2.6-25-4.3-7.2-12.4-9.7-22.2-6.7l-2.3.6V57.7c0-12.5-.3-15.5-2.2-20.4-2.9-7.7-10.4-15.2-18.1-18.1-5.5-2.1-7.4-2.2-36-2.1-28.2 0-30.6.1-35.7 2.1zm70 5.4c6.7 3.1 10.6 6.8 13.7 13.2 2.6 5.4 2.8 6.5 3.1 22.4.4 13.8.1 17.5-1.2 20.8-1.2 3-1.6 7.4-1.6 17.5V112H48V98.5c0-9.8-.4-14.6-1.5-17.2-1.8-4.2-2.1-27.9-.5-36.4 2-10.5 9.5-18.7 19.7-21.5 3.6-1 11.9-1.3 32.3-1.1 25.5.2 27.8.3 32 2.3zM36.4 77.5c5 3.8 5.6 6.1 5.6 21.7 0 8 .3 15.3.6 16.2.5 1.4 6.2 1.6 53.4 1.6h52.8l.6-2.3c.3-1.2.6-8.5.6-16.2 0-11.8.3-14.4 1.8-16.8 2.8-4.2 5.3-5.6 10-5.7 3.4 0 4.9.6 7.8 3.3 3.1 2.8 3.7 4.2 4.1 8.3.6 5.9-1.3 10.5-5.5 13.1-1.5 1-3 2.2-3.4 2.8-.4.5-.8 10.3-.8 21.6 0 15.9-.3 20.9-1.3 21.7-1.9 1.6-131.5 1.6-133.4 0-1-.8-1.3-5.8-1.3-21.7 0-11.3-.4-21.1-.8-21.6-.4-.6-1.9-1.8-3.4-2.8-4.2-2.6-6.1-7.2-5.5-13.1.4-4.1 1-5.5 4.1-8.3 2.9-2.7 4.4-3.3 7.8-3.3 2.4 0 5.2.7 6.2 1.5zM55 153.7c0 .5-.4 2.4-.9 4.3-.6 1.9-1.5 5.4-2.1 7.7-.6 2.6-1.7 4.3-2.5 4.3-1.2 0-1.5-1.7-1.5-8.5V153h3.5c1.9 0 3.5.3 3.5.7zm89 7.8c0 6.8-.3 8.5-1.5 8.5-.8 0-1.9-1.7-2.5-4.3-.6-2.3-1.5-5.8-2.1-7.7-1.3-5-1.3-5 2.6-5h3.5v8.5z"/></symbol><symbol viewBox="0 0 240 240" id="anim-location" xmlns="http://www.w3.org/2000/svg"><path d="M105 21.5C72.3 28.1 47.8 53 41.4 85.8c-4.9 25.4 4.2 57.1 24.3 85.3 16.3 22.7 48.2 50.4 55.8 48.5 7.7-1.9 33.3-24 45.9-39.5 25-30.8 36.7-65.9 31.2-94.3-6.4-33.2-31.2-58-64.4-64.4-8.9-1.7-20.4-1.7-29.2.1zm27.6 9.6c27.6 5 51.3 28.7 56.3 56.3 4.2 23.2-4.2 52.1-22.7 78-11.6 16.1-40.6 43.6-46.2 43.6-5.6 0-34.6-27.5-46.2-43.6C51.5 134.2 44.5 101 54.7 75 67 43.7 100 25.1 132.6 31.1z"/><path d="M110.3 66.4C100 69.8 92.7 76.2 88.1 86c-2.2 4.6-2.6 6.9-2.6 14 0 7.6.4 9.3 3.3 15.2 3.8 7.7 9.2 13 17.1 16.7 4.7 2.2 7 2.6 14.1 2.6s9.4-.4 14.1-2.6c7.9-3.7 13.3-9 17.1-16.7 2.9-5.9 3.3-7.6 3.3-15.2 0-7.1-.4-9.4-2.6-14.1-5.8-12.4-16.9-19.9-30.2-20.5-4.3-.3-8.9.2-11.4 1zm22.5 12.3c15.7 9.7 16.1 32.5.6 42.3-11.9 7.5-27.3 3.8-34.9-8.4-2.6-4.4-3-5.8-3-12.5 0-6.5.4-8.3 2.8-12.3 5.2-8.9 13.2-13.1 23.5-12.4 4.7.3 7.5 1.1 11 3.3z"/></symbol><symbol viewBox="0 0 438 561" id="anim-move" xmlns="http://www.w3.org/2000/svg"><path d="M274 1.6c-1.9.3-7.9 1.4-13.4 2.5C200.2 16.6 156.1 66 149.8 128.2l-1.2 11.7-8.5 2.6c-34.8 10.7-40 12.6-45 16.3-10.1 7.7-9.4 6-52.7 114.5C17.1 336.8 1.5 377.1 1 380.7c-2.4 14.8 4.9 31.5 17.3 39.5 2.8 1.9 27.7 12.6 55.2 23.9l50 20.4H134c9.3 0 11.2-.3 16.2-2.7 7.6-3.5 12.1-7 16.2-12.7 2.3-3.2 13.6-30.1 36.1-86.6 18.1-45.1 33.1-82.3 33.4-82.7.3-.4 4.5.7 9.3 2.5 8 2.9 8.8 3.5 9.3 6.2.2 1.6 1.6 16.2 3 32.4s2.9 30.1 3.3 30.8c.9 1.5 12.2 11.7 17.8 15.9l3.7 2.8-9.4 8.7-9.3 8.6 2.1 24.8c2.5 28.1 2.3 27.6 11.9 31.6 3 1.3 5.4 2.5 5.4 2.8 0 .4-2.5 3.5-5.6 7-3.1 3.5-5.9 7.4-6.3 8.5-1.2 3.2 3.7 53.6 5.4 56.2 1.5 2.4 46.5 39.2 50.2 41.3 4.5 2.4 6.9.4 28.9-23.7C375 514.8 377 512.3 377 509c0-1.9-4.5-53.5-10-114.5-5.5-61.1-10-112-10-113.2 0-1.7 1.3-2.9 5.2-4.9 24.2-12.3 47.5-36.1 60.5-61.7 4.9-9.8 10.8-28.4 12.8-40.2 2.3-13.2 2.3-34.8 0-48-3.5-20.8-12-42-24-60-7.8-11.8-28-32.1-39.7-39.8C355.3 15.7 337.1 8 318.2 4 308.8 1.9 282.6.6 274 1.6zm36.6 16.9c27 4.7 51.2 17.3 71 37C393.2 67 400.2 76.6 407 90c6.2 12.3 9.5 21.7 12 33.8 10.3 50.6-8.9 100.6-50 130-3.5 2.6-10.9 7-16.5 9.7-6.7 3.5-10.4 5.9-11.1 7.6-.9 1.9 1.1 26.8 9.2 116.4 5.7 62.7 10.3 115.2 10.4 116.7 0 2-3.6 6.6-16.1 20.2L328.8 542l-11.1-9.2c-6.2-5-14.9-12.1-19.4-15.7-7-5.5-8.3-7.1-8.4-9.6 0-1.7-.8-11.3-1.8-21.5l-1.8-18.5 7.2-8c9-10.1 10.5-12.3 10.5-15.5 0-3.5-2.9-6-12.6-10.8-9.4-4.7-8.4-2.3-10.5-25.8l-1.1-13.2 4.8-4.3c11.5-10.4 17.4-16.3 18-18.1 1.2-4-.6-6.5-10.9-14.1-5.6-4.2-11.7-9.1-13.4-10.9l-3.1-3.3-2.8-32c-1.5-17.6-3.3-33.4-4-35.1-1-2.7-2.1-3.4-8.4-5.3-4-1.2-9.7-3.3-12.6-4.6l-5.4-2.4 2.1-5.3c8.5-21.1 9.8-29.8 6-41.5-1-3.2-9.5-19.8-18.8-36.8-19-34.6-23-40-33.6-44.5-3.1-1.4-5.7-2.8-5.7-3.2 0-2.1 19.9-17.4 30.7-23.7 7.5-4.3 23.3-11.4 24-10.8.2.2 1 2.9 1.8 6.1 3.4 13.1 11.4 23 23.2 28.8 6.4 3.1 7.3 3.3 17.8 3.3 10.4 0 11.4-.2 17.7-3.3 8.5-4.2 16.8-12.9 19.8-20.9 11.2-29.1-11-59.9-41.9-58.1-13.7.8-25.3 7.9-32.3 19.9-3.6 6.2-4 6.5-10.5 8.8-24.2 8.4-47.5 23.6-64.1 41.8-4.2 4.5-8.9 8.7-10.5 9.3l-3 1 .7-7.2c1-9.2 4.6-23.4 8.5-33.3 15.7-39.2 52.3-69 93.2-75.9 11.5-1.9 32.6-2 43.5-.1zm-13.1 52.9c4.9 2.1 12 9 14.4 14.1 2.5 5.4 2.8 15.5.6 20.8-3.3 7.8-11.2 14-19.7 15.2-13.8 2-28.8-10.3-29.2-23.9l-.1-5 7.7-1.6c8.9-1.8 11.8-3.9 11.8-8.7 0-4.9-3.7-8-8.7-7.4-2.6.4-1.2-1.1 3-2.9 5.1-2.4 15.2-2.6 20.2-.6zm-106.9 78.5c2.3 1 5.6 3.4 7.4 5.3 2.7 2.9 24.1 40.5 34.7 61.3 6.8 13.2 9.2 5.2-35.1 116.5-21.4 53.6-39.8 99.3-40.8 101.5-4.8 9.7-12.8 14.9-22.8 14.8-6.1-.1-9.5-1.3-54-19.6-26.2-10.7-48.9-20.1-50.5-21-3.8-1.9-8.7-7.2-11.1-11.7-1.3-2.4-1.8-5.6-1.8-10.5 0-6.9.8-9 39.9-106.5 21.9-54.7 40.9-100.9 42.2-102.7 4.7-6.4 8.4-8.1 33.9-16.2 13.7-4.3 25-7.7 25.2-7.6.1.1-.9 2.8-2.3 5.9-3.2 7.2-6.5 19.1-6.5 23.2 0 2.6-.5 3.3-2.6 3.8-4.6 1.2-13.8 11.4-16 17.6-5.4 15.9 1.4 32.8 16.2 40.1 6.9 3.4 19.7 3.4 26.7 0 19-9.4 23.9-34.3 9.8-50.3-3.1-3.6-13.9-9.8-16.9-9.8-3.6 0 1-14.5 9.1-28.7 4-6.9 4.4-7.3 7.7-7.3 1.9 0 5.4.9 7.6 1.9zM167 201.2c14.7 7.5 9.4 29.8-7 29.8-12 0-19.7-13.2-13.8-23.5 2.5-4.3 9.3-8.5 13.8-8.5 1.4 0 4.6 1 7 2.2z"/></symbol><symbol viewBox="0 0 561 490" id="anim-shop" xmlns="http://www.w3.org/2000/svg"><path d="M39.4.7c-1.2.2-2.9 1.2-3.7 2.1-.8.9-8.8 28.2-17.7 60.7-14 50.7-16.3 60.3-16.7 67.9-1.2 23.8 6.1 44.4 21.5 60.8 6.6 7 19.3 16.3 23.9 17.4l2.3.6.2 137.5.3 137.5 2.4 1.9c2.3 1.9 7.3 1.9 229.1 1.9 221.8 0 226.8 0 229.1-1.9l2.4-1.9.3-137.5.2-137.5 2.3-.6c4.4-1.1 17.2-10.3 23.3-16.7 15.6-16.4 23.1-37.2 22.1-60.7-.4-8.8-2-15.5-16.7-68.7-11.1-40.7-16.8-59.6-18.1-61-1.9-2-3.3-2-243.2-2.1C150.1.3 40.5.5 39.4.7zm489 65.6c7.5 27.7 13.6 50.6 13.6 51 0 .4-117.4.7-261 .7-143.5 0-261-.4-261-.8s6.1-23.3 13.6-50.9L47.3 16h467.4l13.7 50.3zm-391.7 76.9c-.4 4.6-1.3 10.5-2.1 13.1-6.3 20.1-23.6 37.1-43.2 42.2-7.5 1.9-21.3 1.9-28.8 0-25.5-6.6-45.5-32.3-45.6-58.3V135h120.3l-.6 8.2zm136 0c-.4 4.6-1.3 10.5-2.1 13.1-6.3 20.1-23.6 37.1-43.2 42.2-7.5 1.9-21.3 1.9-28.8 0-25.5-6.6-45.5-32.3-45.6-58.3V135h120.3l-.6 8.2zm136 0c-.4 4.6-1.3 10.5-2.1 13.1-6.3 20.1-23.6 37.1-43.2 42.2-7.5 1.9-21.3 1.9-28.8 0-25.5-6.6-45.5-32.3-45.6-58.3V135h120.3l-.6 8.2zm136 0c-1.2 15.4-7.1 28.2-18.2 39.4-11.7 11.7-25.2 17.4-41.5 17.4-4.7 0-11.2-.7-14.4-1.5-25.5-6.6-45.5-32.3-45.6-58.3V135h120.3l-.6 8.2zm-395.8 36.4c7.1 11.9 21.3 24.5 33.8 30 23.2 10.3 51.1 7.8 72-6.4 7.3-5 18-16.2 22.4-23.6 1.9-3.1 3.6-5.6 3.9-5.6.3 0 2 2.5 3.9 5.6 4.4 7.4 15.1 18.6 22.4 23.6 25 17 58.4 17 83.4 0 7.3-5 18-16.2 22.4-23.6 1.9-3.1 3.6-5.6 3.9-5.6.3 0 2 2.5 3.9 5.6 4.4 7.4 15.1 18.6 22.4 23.6 13 8.8 28.2 13.2 43.9 12.6l9.8-.3V473H252l-.2-104.5-.3-104.4-2.3-2.3-2.3-2.3H141.8l-2.4 2.8-2.4 2.8V473H65V215.5l9.8.3c15.7.6 30.9-3.8 43.9-12.6 7.3-5 18-16.2 22.4-23.6 1.9-3.1 3.6-5.6 3.9-5.6.3 0 2 2.5 3.9 5.6zM236 374v99h-83V275h83v99z"/></symbol><symbol viewBox="0 0 18.7 35.4" id="arrow" xmlns="http://www.w3.org/2000/svg"><path d="M18.7 17L1.5 0 .1 1.4l16.2 16.3L0 34l1.6 1.4 17.1-17z"/></symbol><symbol viewBox="0 0 15.642 15.642" id="close" xmlns="http://www.w3.org/2000/svg"><path fill-rule="evenodd" d="M8.882 7.821l6.541-6.541A.75.75 0 1 0 14.362.219L7.821 6.76 1.28.22A.75.75 0 1 0 .219 1.281L6.76 7.822l-6.54 6.54a.75.75 0 0 0 1.06 1.061l6.541-6.541 6.541 6.541a.75.75 0 1 0 1.06-1.061l-6.54-6.541z"/></symbol><symbol viewBox="0 0 22 22" id="earth" xmlns="http://www.w3.org/2000/svg"><path d="M11 0C4.925 0 0 4.925 0 11s4.925 11 11 11 11-4.925 11-11A11 11 0 0 0 11 0zm3.65 15.861l-.5.5a1.06 1.06 0 0 0-.274.475c-.067.251-.121.5-.212.748l-.771 2.078A8.864 8.864 0 0 1 11 19.87v-1.214a3.321 3.321 0 0 0-1-2.273 1.419 1.419 0 0 1-.416-1v-1.42a1.415 1.415 0 0 0-.73-1.241 72.473 72.473 0 0 0-2.165-1.158 6.394 6.394 0 0 1-1.4-.965l-.035-.032a5.092 5.092 0 0 1-.8-.92c-.425-.61-1.103-1.618-1.543-2.271a8.919 8.919 0 0 1 4.577-4.52l1.065.533a.71.71 0 0 0 1.027-.635v-.5c.358-.058.72-.094 1.082-.107l1.255 1.255a.71.71 0 0 1 0 1l-.208.208-.459.459a.355.355 0 0 0 0 .5l.208.208a.355.355 0 0 1 0 .5l-.358.36a.355.355 0 0 1-.251.1h-.4a.355.355 0 0 0-.248.1l-.44.428a.355.355 0 0 0-.07.413l.691 1.383a.355.355 0 0 1-.317.514h-.25a.354.354 0 0 1-.232-.087l-.406-.351A.71.71 0 0 0 8.487 9L7.1 9.459a.53.53 0 0 0-.064.978l.491.246a3 3 0 0 0 1.344.318c.467 0 1 1.21 1.419 1.419h2.961c.375.001.735.15 1 .416l.607.607c.255.253.4.598.4.957 0 .55-.22 1.076-.609 1.463l.001-.002zm3.85-4.052a1.065 1.065 0 0 1-.628-.442l-.8-1.2a1.063 1.063 0 0 1 0-1.181l.869-1.3c.103-.154.244-.278.41-.361l.576-.288a8.593 8.593 0 0 1 .865 5.1l-1.292-.328z"/></symbol><symbol viewBox="0 0 17 17" id="facebook" xmlns="http://www.w3.org/2000/svg"><path d="M16.107 8.548a8.049 8.049 0 1 0-9.306 7.951v-5.624H4.756V8.548h2.045V6.775a2.84 2.84 0 0 1 3.04-3.131c.603.008 1.205.06 1.8.157v1.98h-1.014a1.163 1.163 0 0 0-1.311 1.256v1.511h2.231l-.357 2.327H9.316V16.5a8.052 8.052 0 0 0 6.791-7.952z"/></symbol><symbol viewBox="0 0 17 17" id="instagram" xmlns="http://www.w3.org/2000/svg"><path d="M8.106.5c-2.173 0-2.445.01-3.3.048a5.9 5.9 0 0 0-1.94.372c-.534.2-1.017.516-1.417.923A3.9 3.9 0 0 0 .526 3.26 5.882 5.882 0 0 0 .154 5.2c-.04.855-.048 1.127-.048 3.3s.01 2.445.048 3.3a5.9 5.9 0 0 0 .372 1.94c.201.534.516 1.017.923 1.417.4.407.883.722 1.417.923a5.906 5.906 0 0 0 1.942.372c.853.04 1.125.048 3.3.048s2.445-.01 3.3-.048a5.92 5.92 0 0 0 1.942-.372 4.088 4.088 0 0 0 2.34-2.34 5.9 5.9 0 0 0 .372-1.942c.04-.853.048-1.125.048-3.3s-.01-2.445-.048-3.3a5.916 5.916 0 0 0-.376-1.938 3.926 3.926 0 0 0-.923-1.417A3.9 3.9 0 0 0 13.346.92a5.885 5.885 0 0 0-1.94-.372C10.551.508 10.279.5 8.106.5zm0 1.44c2.135 0 2.39.011 3.233.047.507.006 1.01.1 1.485.277.7.267 1.251.82 1.519 1.518.176.476.27.978.275 1.485.038.844.047 1.1.047 3.233s-.01 2.39-.049 3.233a4.5 4.5 0 0 1-.281 1.485 2.54 2.54 0 0 1-.6.921 2.5 2.5 0 0 1-.92.6c-.477.176-.981.27-1.49.275-.849.038-1.1.047-3.239.047s-2.391-.01-3.239-.049a4.536 4.536 0 0 1-1.491-.281 2.477 2.477 0 0 1-.919-.6 2.429 2.429 0 0 1-.6-.92 4.54 4.54 0 0 1-.28-1.49c-.03-.84-.041-1.1-.041-3.229s.011-2.391.041-3.241c.01-.509.104-1.012.28-1.489.125-.35.33-.665.6-.921.255-.27.57-.475.919-.6a4.428 4.428 0 0 1 1.481-.281c.85-.03 1.1-.04 3.239-.04l.03.02zm0 2.452a4.108 4.108 0 1 0 0 8.216 4.108 4.108 0 0 0 0-8.216zm0 6.775a2.667 2.667 0 1 1 0-5.334 2.667 2.667 0 0 1 0 5.334zm5.231-6.937a.96.96 0 1 1-1.92.002.96.96 0 0 1 1.92-.002z"/></symbol><symbol viewBox="0 0 17 17" id="linkedin" xmlns="http://www.w3.org/2000/svg"><path d="M14.963.5H1.245A1.148 1.148 0 0 0 .106 1.65v13.7a1.148 1.148 0 0 0 1.139 1.15h13.718a1.151 1.151 0 0 0 1.143-1.15V1.65A1.15 1.15 0 0 0 14.963.5zM4.942 14.214H2.57V6.579h2.375v7.636l-.003-.001zM3.756 5.536a1.375 1.375 0 1 1 0-2.75 1.375 1.375 0 0 1 0 2.75zm10.075 8.679H11.46V10.5c0-.886-.018-2.025-1.232-2.025-1.236 0-1.425.964-1.425 1.961v3.779H6.431V6.579h2.275v1.042h.032a2.5 2.5 0 0 1 2.246-1.232c2.4 0 2.846 1.582 2.846 3.639l.001 4.187z"/></symbol><symbol viewBox="0 0 23 18" id="mail" xmlns="http://www.w3.org/2000/svg"><path d="M20.25 0h-18A2.247 2.247 0 0 0 .011 2.25L0 15.75A2.257 2.257 0 0 0 2.25 18h18a2.257 2.257 0 0 0 2.25-2.25V2.25A2.257 2.257 0 0 0 20.25 0zm0 15.75h-18V4.5l9 5.625 9-5.625v11.25zm-9-7.875l-9-5.625h18l-9 5.625z"/></symbol><symbol viewBox="0 0 16 24" id="phone" xmlns="http://www.w3.org/2000/svg"><path d="M13.091.011L2.182 0A2.188 2.188 0 0 0 0 2.182v19.636A2.188 2.188 0 0 0 2.182 24h10.909a2.188 2.188 0 0 0 2.182-2.182V2.182A2.179 2.179 0 0 0 13.091.011zm0 19.625H2.182V4.364h10.909v15.272z"/></symbol><symbol viewBox="0 0 330 330" id="up-arrow" xmlns="http://www.w3.org/2000/svg"><path d="M100.606 100.606L150 51.212V315c0 8.284 6.716 15 15 15 8.284 0 15-6.716 15-15V51.212l49.394 49.394A14.95 14.95 0 0 0 240 105a14.95 14.95 0 0 0 10.606-4.394c5.858-5.857 5.858-15.355 0-21.213l-75-75c-5.857-5.858-15.355-5.858-21.213 0l-75 75c-5.858 5.857-5.858 15.355 0 21.213 5.858 5.857 15.356 5.857 21.213 0z"/></symbol><symbol viewBox="0 0 23 17" id="youtube" xmlns="http://www.w3.org/2000/svg"><path d="M22.522 2.971A2.869 2.869 0 0 0 20.529.976C18.745.498 11.563.498 11.563.498S4.399.49 2.599.976A2.869 2.869 0 0 0 .605 2.971a29.818 29.818 0 0 0-.5 5.539c-.005 1.85.162 3.698.5 5.518a2.869 2.869 0 0 0 1.994 1.993c1.783.479 8.966.479 8.966.479s7.163 0 8.966-.479a2.869 2.869 0 0 0 1.992-1.992c.33-1.82.49-3.668.477-5.518a29.819 29.819 0 0 0-.477-5.539l-.001-.001zM9.271 11.937V5.076l5.977 3.437-5.977 3.424z"/></symbol></svg>