<?xml version="1.0" encoding="UTF-8" standalone="no"?>
<svg width="22px" height="22px" viewBox="0 0 22 22" version="1.1" xmlns="http://www.w3.org/2000/svg" xmlns:xlink="http://www.w3.org/1999/xlink">
    <!-- Generator: Sketch 43.1 (39012) - http://www.bohemiancoding.com/sketch -->
    <title>Icon awesome-globe-americas</title>
    <desc>Created with Sketch.</desc>
    <defs></defs>
    <g id="Page-1" stroke="none" stroke-width="1" fill="none" fill-rule="evenodd">
        <g id="Icon-awesome-globe-americas" fill-rule="nonzero" fill="#666666">
            <path d="M11,0 C4.92486775,1.11022302e-16 7.43989126e-16,4.92486775 0,11 C-7.43989126e-16,17.0751322 4.92486775,22 11,22 C17.0751322,22 22,17.0751322 22,11 C22,8.08261861 20.8410748,5.28472557 18.7781746,3.22182541 C16.7152744,1.15892524 13.9173814,5.55111512e-16 11,4.4408921e-16 L11,0 Z M14.65,15.861 L14.15,16.361 C14.018584,16.4925591 13.9240886,16.6563741 13.876,16.836 C13.809,17.087 13.755,17.336 13.664,17.584 L12.893,19.662 C12.2713006,19.7991127 11.6366386,19.8688484 11,19.87 L11,18.656 C10.973135,17.7975272 10.6147192,16.9828479 10,16.383 C9.73457258,16.1177786 9.58499793,15.7582241 9.584,15.383 L9.584,13.963 C9.58504058,13.4472013 9.3053322,12.9716971 8.854,12.722 C8.217,12.369 7.31,11.877 6.689,11.564 C6.18145317,11.306095 5.71062435,10.9815594 5.289,10.599 L5.254,10.567 C4.95145053,10.2934793 4.68285914,9.98459923 4.454,9.647 C4.029,9.037 3.351,8.029 2.911,7.376 C3.82130752,5.35245206 5.45320377,3.74087874 7.488,2.856 L8.553,3.389 C8.77304089,3.49879467 9.03422782,3.48690972 9.2433879,3.35758484 C9.45254798,3.22825996 9.57989477,2.99991229 9.58,2.754 L9.58,2.254 C9.93813733,2.19622601 10.2994836,2.16049214 10.662,2.147 L11.917,3.402 C12.1915556,3.67879776 12.1915556,4.12520224 11.917,4.402 L11.709,4.61 L11.25,5.069 C11.1127222,5.20739888 11.1127222,5.43060112 11.25,5.569 L11.458,5.777 C11.5952778,5.91539888 11.5952778,6.13860112 11.458,6.277 L11.1,6.637 C11.0327845,6.70211385 10.9425769,6.73805314 10.849,6.737 L10.449,6.737 C10.3564592,6.73673496 10.2674729,6.77261656 10.201,6.837 L9.761,7.265 C9.65027704,7.37276457 9.6219712,7.53976903 9.691,7.678 L10.382,9.061 C10.4370952,9.17098303 10.4313272,9.30164941 10.3667551,9.40634991 C10.302183,9.51105042 10.1880111,9.57486076 10.065,9.575 L9.815,9.575 C9.7297113,9.57489462 9.6473279,9.54400085 9.583,9.488 L9.177,9.137 C8.98737846,8.97259251 8.72504823,8.92050666 8.487,9 L7.1,9.459 C6.89653391,9.52765406 6.7546013,9.71229534 6.74057899,9.92657368 C6.72655669,10.140852 6.84321619,10.3424155 7.036,10.437 L7.527,10.683 C7.94417142,10.8920836 8.4043653,11.0009688 8.871,11.001 C9.338,11.001 9.871,12.211 10.29,12.42 L13.251,12.42 C13.6262022,12.421107 13.9857167,12.570665 14.251,12.836 L14.858,13.443 C15.1131695,13.6961967 15.2570911,14.0405292 15.258,14.4 C15.2577543,14.9492736 15.0385807,15.4757941 14.649,15.863 L14.65,15.861 Z M18.5,11.809 C18.2429831,11.744893 18.0190808,11.5873058 17.872,11.367 L17.072,10.167 C16.8331997,9.80954773 16.8331997,9.34345227 17.072,8.986 L17.941,7.686 C18.0438854,7.53200497 18.1852191,7.40756237 18.351,7.325 L18.927,7.037 C19.7323201,8.6078014 20.0343417,10.3885069 19.792,12.137 L18.5,11.809 Z" id="Icon_awesome-globe-americas"></path>
        </g>
    </g>
</svg>