<?xml version="1.0" encoding="UTF-8" standalone="no"?>
<svg width="17px" height="17px" viewBox="0 0 17 17" version="1.1" xmlns="http://www.w3.org/2000/svg" xmlns:xlink="http://www.w3.org/1999/xlink">
    <!-- Generator: Sketch 43.1 (39012) - http://www.bohemiancoding.com/sketch -->
    <title>facebook-d</title>
    <desc>Created with Sketch.</desc>
    <defs></defs>
    <g id="Page-1" stroke="none" stroke-width="1" fill="none" fill-rule="evenodd">
        <g id="facebook-d" fill-rule="nonzero" fill="#666666">
            <path d="M16.107,8.548 C16.1066,4.266185 12.75401,0.734165 8.47803,0.510724 C4.20204,0.287284 0.49959,3.450643 0.05292,7.709097 C-0.39376,11.96755 2.57172,15.830315 6.801,16.499 L6.801,10.875 L4.756,10.875 L4.756,8.548 L6.801,8.548 L6.801,6.775 C6.71218,5.936691 7.00038,5.10225 7.58762,4.497434 C8.17486,3.892618 9.00044,3.579942 9.841,3.644 C10.44402,3.652446 11.04562,3.704918 11.641,3.801 L11.641,5.781 L10.627,5.781 C10.27696,5.734678 9.92483,5.849888 9.66986,6.094156 C9.4149,6.338425 9.28471,6.685296 9.316,7.037 L9.316,8.548 L11.547,8.548 L11.19,10.875 L9.316,10.875 L9.316,16.5 C13.22708,15.879845 16.10668,12.507942 16.107,8.548 L16.107,8.548 Z" id="Icon_awesome-facebook"></path>
        </g>
    </g>
</svg>