<?xml version="1.0" encoding="UTF-8" standalone="no"?>
<svg width="17px" height="17px" viewBox="0 0 17 17" version="1.1" xmlns="http://www.w3.org/2000/svg" xmlns:xlink="http://www.w3.org/1999/xlink">
    <!-- Generator: Sketch 43.1 (39012) - http://www.bohemiancoding.com/sketch -->
    <title>Icon_awesome-facebook</title>
    <desc>Created with Sketch.</desc>
    <defs></defs>
    <g id="Page-1" stroke="none" stroke-width="1" fill="none" fill-rule="evenodd">
        <g id="Visengine_Landing_1---1-–-6" transform="translate(-1057.000000, -382.000000)" fill-rule="nonzero" fill="#000000">
            <g id="Visengine_Landing_1_-_1_6" transform="translate(-186.000000, 0.000000)">
                <path d="M1259.107,390.548 C1259.1066,386.266185 1255.75401,382.734165 1251.47803,382.510724 C1247.20204,382.287284 1243.49959,385.450643 1243.05292,389.709097 C1242.60624,393.96755 1245.57172,397.830315 1249.801,398.499 L1249.801,392.875 L1247.756,392.875 L1247.756,390.548 L1249.801,390.548 L1249.801,388.775 C1249.71218,387.936691 1250.00038,387.10225 1250.58762,386.497434 C1251.17486,385.892618 1252.00044,385.579942 1252.841,385.644 C1253.44402,385.652446 1254.04562,385.704918 1254.641,385.801 L1254.641,387.781 L1253.627,387.781 C1253.27696,387.734678 1252.92483,387.849888 1252.66986,388.094156 C1252.4149,388.338425 1252.28471,388.685296 1252.316,389.037 L1252.316,390.548 L1254.547,390.548 L1254.19,392.875 L1252.316,392.875 L1252.316,398.5 C1256.22708,397.879845 1259.10668,394.507942 1259.107,390.548 L1259.107,390.548 Z" id="Icon_awesome-facebook"></path>
            </g>
        </g>
    </g>
</svg>