<?xml version="1.0" encoding="UTF-8" standalone="no"?>
<svg width="17px" height="17px" viewBox="0 0 17 17" version="1.1" xmlns="http://www.w3.org/2000/svg" xmlns:xlink="http://www.w3.org/1999/xlink">
    <!-- Generator: Sketch 43.1 (39012) - http://www.bohemiancoding.com/sketch -->
    <title>Icon_awesome-facebook</title>
    <desc>Created with Sketch.</desc>
    <defs></defs>
    <g id="Page-1" stroke="none" stroke-width="1" fill="none" fill-rule="evenodd">
        <g id="Visengine_Landing_1_mobile---1-–-3" transform="translate(-108.000000, -575.000000)" fill-rule="nonzero" fill="#FFFFFF">
            <g id="Visengine_Landing_1_mobile_-_1_3">
                <g id="Group_1665" transform="translate(97.000000, 488.000000)">
                    <g id="Group_1658" transform="translate(10.500000, 86.250000)">
                        <path d="M17.098,9.049 C17.0975969,4.76718458 13.7450076,1.23516516 9.46902612,1.01172446 C5.19304464,0.788283762 1.49058945,3.95164301 1.04391602,8.21009652 C0.5972426,12.46855 3.56272059,16.3313154 7.792,17 L7.792,11.376 L5.747,11.376 L5.747,9.049 L7.792,9.049 L7.792,7.276 C7.70318479,6.43769113 7.99138162,5.60324994 8.57861897,4.9984341 C9.16585632,4.39361826 9.9914368,4.0809421 10.832,4.145 C11.4350219,4.15344561 12.0366219,4.2059185 12.632,4.302 L12.632,6.282 L11.618,6.282 C11.2679592,6.23567759 10.9158297,6.35088751 10.6608647,6.59515612 C10.4058996,6.83942472 10.275713,7.18629634 10.307,7.538 L10.307,9.049 L12.538,9.049 L12.181,11.376 L10.307,11.376 L10.307,17.001 C14.2180802,16.3808452 17.0976822,13.0089419 17.098,9.049 L17.098,9.049 Z" id="Icon_awesome-facebook"></path>
                    </g>
                </g>
            </g>
        </g>
    </g>
</svg>