<?xml version="1.0" encoding="UTF-8" standalone="no"?>
<svg width="17px" height="17px" viewBox="0 0 17 17" version="1.1" xmlns="http://www.w3.org/2000/svg" xmlns:xlink="http://www.w3.org/1999/xlink">
    <!-- Generator: Sketch 43.1 (39012) - http://www.bohemiancoding.com/sketch -->
    <title>Icon_simple-instagram</title>
    <desc>Created with Sketch.</desc>
    <defs></defs>
    <g id="Page-1" stroke="none" stroke-width="1" fill="none" fill-rule="evenodd">
        <g id="Visengine_Landing_1_mobile---1-–-3" transform="translate(-148.000000, -575.000000)" fill-rule="nonzero" fill="#FFFFFF">
            <g id="Visengine_Landing_1_mobile_-_1_3">
                <g id="Group_1665" transform="translate(97.000000, 488.000000)">
                    <g id="Group_1658" transform="translate(10.500000, 86.250000)">
                        <path d="M49.096,1 C46.923,1 46.651,1.01 45.796,1.048 C45.1330231,1.06209634 44.4771662,1.18785858 43.856,1.42 C43.3221086,1.62084799 42.838512,1.93585126 42.439,2.343 C42.0313984,2.742141 41.7163256,3.22584432 41.516,3.76 C41.2835256,4.38107278 41.1577524,5.03698673 41.144,5.7 C41.104,6.555 41.096,6.827 41.096,9 C41.096,11.173 41.106,11.445 41.144,12.3 C41.1580963,12.9629769 41.2838586,13.6188338 41.516,14.24 C41.7169922,14.7738184 42.0319763,15.2573856 42.439,15.657 C42.8383888,16.0642992 43.3220207,16.3793256 43.856,16.58 C44.4778289,16.8122514 45.1343614,16.9380135 45.798,16.952 C46.651,16.992 46.923,17 49.098,17 C51.273,17 51.543,16.99 52.398,16.952 C53.0616105,16.9377475 53.718099,16.8119938 54.34,16.58 C55.4149536,16.1646848 56.2646848,15.3149536 56.68,14.24 C56.9123621,13.6182022 57.0381279,12.9616507 57.052,12.298 C57.092,11.445 57.1,11.173 57.1,8.998 C57.1,6.823 57.09,6.553 57.052,5.698 C57.0360954,5.0355004 56.9089928,4.38038134 56.676,3.76 C56.4749215,3.22622532 56.1599488,2.74267571 55.753,2.343 C55.353859,1.93539837 54.8701557,1.62032557 54.336,1.42 C53.7149116,1.18758126 53.0590072,1.06180991 52.396,1.048 C51.541,1.008 51.269,1 49.096,1 Z M49.096,2.44 C51.231,2.44 51.486,2.451 52.329,2.487 C52.8362514,2.49319576 53.3386268,2.58690485 53.814,2.764 C54.5130497,3.03114136 55.0653983,3.58312639 55.333,4.282 C55.509239,4.75754192 55.6022651,5.25988325 55.608,5.767 C55.646,6.611 55.655,6.867 55.655,9 C55.655,11.133 55.645,11.39 55.606,12.233 C55.596722,12.7403019 55.5017157,13.2423816 55.325,13.718 C55.1946218,14.0651143 54.9898269,14.3794744 54.725,14.639 C54.4666027,14.9047263 54.1523527,15.109672 53.805,15.239 C53.3277108,15.4151876 52.8237372,15.5082029 52.315,15.514 C51.466,15.552 51.215,15.561 49.076,15.561 C46.937,15.561 46.685,15.551 45.837,15.512 C45.3277485,15.502708 44.8236987,15.4077127 44.346,15.231 C43.9986546,15.1022361 43.6846133,14.8972037 43.427,14.631 C43.1593786,14.3741677 42.9541318,14.059456 42.827,13.711 C42.6508122,13.233538 42.5561594,12.7298499 42.547,12.221 C42.517,11.381 42.506,11.121 42.506,8.992 C42.506,6.863 42.517,6.601 42.547,5.751 C42.5561764,5.24247709 42.6508304,4.73912057 42.827,4.262 C42.9520933,3.91223831 43.1576159,3.59676117 43.427,3.341 C43.6820703,3.07173251 43.9968726,2.86620329 44.346,2.741 C44.8199775,2.56337479 45.3209012,2.4683312 45.827,2.46 C46.677,2.43 46.927,2.42 49.066,2.42 L49.096,2.44 Z M49.096,4.892 C46.8272142,4.892 44.988,6.73121425 44.988,9 C44.988,11.2687858 46.8272142,13.108 49.096,13.108 C51.3647858,13.108 53.204,11.2687858 53.204,9 C53.204,7.91049066 52.7711941,6.86560479 52.0007947,6.09520534 C51.2303952,5.3248059 50.1855093,4.892 49.096,4.892 L49.096,4.892 Z M49.096,11.667 C47.6230566,11.667 46.429,10.4729434 46.429,9 C46.429,7.52705657 47.6230566,6.333 49.096,6.333 C50.5689434,6.333 51.763,7.52705657 51.763,9 C51.7632654,9.70741371 51.4823639,10.3859298 50.9821469,10.8861469 C50.4819298,11.3863639 49.8034137,11.6672654 49.096,11.667 L49.096,11.667 Z M54.327,4.73 C54.3274046,5.1183745 54.0937647,5.46873213 53.7350695,5.61763702 C53.3763743,5.76654191 52.9632973,5.6846554 52.6885318,5.41017616 C52.4137664,5.13569691 52.3314494,4.72270545 52.4799804,4.36385525 C52.6285114,4.00500505 52.9786253,3.77100021 53.367,3.771 C53.8965752,3.77154992 54.3258982,4.20042568 54.327,4.73 Z" id="Icon_simple-instagram"></path>
                    </g>
                </g>
            </g>
        </g>
    </g>
</svg>