<?xml version="1.0" encoding="UTF-8" standalone="no"?>
<svg width="17px" height="17px" viewBox="0 0 17 17" version="1.1" xmlns="http://www.w3.org/2000/svg" xmlns:xlink="http://www.w3.org/1999/xlink">
    <!-- Generator: Sketch 43.1 (39012) - http://www.bohemiancoding.com/sketch -->
    <title>instagram-d</title>
    <desc>Created with Sketch.</desc>
    <defs></defs>
    <g id="Page-1" stroke="none" stroke-width="1" fill="none" fill-rule="evenodd">
        <g id="instagram-d" fill-rule="nonzero" fill="#666666">
            <path d="M8.106,0.5 C5.933,0.5 5.661,0.51 4.806,0.548 C4.14302,0.562096 3.48717,0.687859 2.866,0.92 C2.33211,1.120848 1.84851,1.435851 1.449,1.843 C1.0414,2.242141 0.72633,2.725844 0.526,3.26 C0.29353,3.881073 0.16775,4.536987 0.154,5.2 C0.114,6.055 0.106,6.327 0.106,8.5 C0.106,10.673 0.116,10.945 0.154,11.8 C0.1681,12.462977 0.29386,13.118834 0.526,13.74 C0.72699,14.273818 1.04198,14.757386 1.449,15.157 C1.84839,15.564299 2.33202,15.879326 2.866,16.08 C3.48783,16.312251 4.14436,16.438014 4.808,16.452 C5.661,16.492 5.933,16.5 8.108,16.5 C10.283,16.5 10.553,16.49 11.408,16.452 C12.07161,16.437748 12.7281,16.311994 13.35,16.08 C14.42495,15.664685 15.27468,14.814954 15.69,13.74 C15.92236,13.118202 16.04813,12.461651 16.062,11.798 C16.102,10.945 16.11,10.673 16.11,8.498 C16.11,6.323 16.1,6.053 16.062,5.198 C16.0461,4.5355 15.91899,3.880381 15.686,3.26 C15.48492,2.726225 15.16995,2.242676 14.763,1.843 C14.36386,1.435398 13.88016,1.120326 13.346,0.92 C12.72491,0.687581 12.06901,0.56181 11.406,0.548 C10.551,0.508 10.279,0.5 8.106,0.5 Z M8.106,1.94 C10.241,1.94 10.496,1.951 11.339,1.987 C11.84625,1.993196 12.34863,2.086905 12.824,2.264 C13.52305,2.531141 14.0754,3.083126 14.343,3.782 C14.51924,4.257542 14.61227,4.759883 14.618,5.267 C14.656,6.111 14.665,6.367 14.665,8.5 C14.665,10.633 14.655,10.89 14.616,11.733 C14.60672,12.240302 14.51172,12.742382 14.335,13.218 C14.20462,13.565114 13.99983,13.879474 13.735,14.139 C13.4766,14.404726 13.16235,14.609672 12.815,14.739 C12.33771,14.915188 11.83374,15.008203 11.325,15.014 C10.476,15.052 10.225,15.061 8.086,15.061 C5.947,15.061 5.695,15.051 4.847,15.012 C4.33775,15.002708 3.8337,14.907713 3.356,14.731 C3.00865,14.602236 2.69461,14.397204 2.437,14.131 C2.16938,13.874168 1.96413,13.559456 1.837,13.211 C1.66081,12.733538 1.56616,12.22985 1.557,11.721 C1.527,10.881 1.516,10.621 1.516,8.492 C1.516,6.363 1.527,6.101 1.557,5.251 C1.56618,4.742477 1.66083,4.239121 1.837,3.762 C1.96209,3.412238 2.16762,3.096761 2.437,2.841 C2.69207,2.571733 3.00687,2.366203 3.356,2.241 C3.82998,2.063375 4.3309,1.968331 4.837,1.96 C5.687,1.93 5.937,1.92 8.076,1.92 L8.106,1.94 Z M8.106,4.392 C5.83721,4.392 3.998,6.231214 3.998,8.5 C3.998,10.768786 5.83721,12.608 8.106,12.608 C10.37479,12.608 12.214,10.768786 12.214,8.5 C12.214,7.410491 11.78119,6.365605 11.01079,5.595205 C10.2404,4.824806 9.19551,4.392 8.106,4.392 L8.106,4.392 Z M8.106,11.167 C6.63306,11.167 5.439,9.972943 5.439,8.5 C5.439,7.027057 6.63306,5.833 8.106,5.833 C9.57894,5.833 10.773,7.027057 10.773,8.5 C10.77327,9.207414 10.49236,9.88593 9.99215,10.386147 C9.49193,10.886364 8.81341,11.167265 8.106,11.167 L8.106,11.167 Z M13.337,4.23 C13.3374,4.618375 13.10376,4.968732 12.74507,5.117637 C12.38637,5.266542 11.9733,5.184655 11.69853,4.910176 C11.42377,4.635697 11.34145,4.222705 11.48998,3.863855 C11.63851,3.505005 11.98863,3.271 12.377,3.271 C12.90658,3.27155 13.3359,3.700426 13.337,4.23 Z" id="Icon_simple-instagram"></path>
        </g>
    </g>
</svg>