<?xml version="1.0" encoding="UTF-8" standalone="no"?>
<svg width="17px" height="17px" viewBox="0 0 17 17" version="1.1" xmlns="http://www.w3.org/2000/svg" xmlns:xlink="http://www.w3.org/1999/xlink">
    <!-- Generator: Sketch 43.1 (39012) - http://www.bohemiancoding.com/sketch -->
    <title>Icon_simple-instagram</title>
    <desc>Created with Sketch.</desc>
    <defs></defs>
    <g id="Page-1" stroke="none" stroke-width="1" fill="none" fill-rule="evenodd">
        <g id="Visengine_Landing_1---1-–-6" transform="translate(-1097.000000, -382.000000)" fill-rule="nonzero" fill="#000000">
            <g id="Visengine_Landing_1_-_1_6" transform="translate(-186.000000, 0.000000)">
                <path d="M1291.106,382.5 C1288.933,382.5 1288.661,382.51 1287.806,382.548 C1287.14302,382.562096 1286.48717,382.687859 1285.866,382.92 C1285.33211,383.120848 1284.84851,383.435851 1284.449,383.843 C1284.0414,384.242141 1283.72633,384.725844 1283.526,385.26 C1283.29353,385.881073 1283.16775,386.536987 1283.154,387.2 C1283.114,388.055 1283.106,388.327 1283.106,390.5 C1283.106,392.673 1283.116,392.945 1283.154,393.8 C1283.1681,394.462977 1283.29386,395.118834 1283.526,395.74 C1283.72699,396.273818 1284.04198,396.757386 1284.449,397.157 C1284.84839,397.564299 1285.33202,397.879326 1285.866,398.08 C1286.48783,398.312251 1287.14436,398.438014 1287.808,398.452 C1288.661,398.492 1288.933,398.5 1291.108,398.5 C1293.283,398.5 1293.553,398.49 1294.408,398.452 C1295.07161,398.437748 1295.7281,398.311994 1296.35,398.08 C1297.42495,397.664685 1298.27468,396.814954 1298.69,395.74 C1298.92236,395.118202 1299.04813,394.461651 1299.062,393.798 C1299.102,392.945 1299.11,392.673 1299.11,390.498 C1299.11,388.323 1299.1,388.053 1299.062,387.198 C1299.0461,386.5355 1298.91899,385.880381 1298.686,385.26 C1298.48492,384.726225 1298.16995,384.242676 1297.763,383.843 C1297.36386,383.435398 1296.88016,383.120326 1296.346,382.92 C1295.72491,382.687581 1295.06901,382.56181 1294.406,382.548 C1293.551,382.508 1293.279,382.5 1291.106,382.5 Z M1291.106,383.94 C1293.241,383.94 1293.496,383.951 1294.339,383.987 C1294.84625,383.993196 1295.34863,384.086905 1295.824,384.264 C1296.52305,384.531141 1297.0754,385.083126 1297.343,385.782 C1297.51924,386.257542 1297.61227,386.759883 1297.618,387.267 C1297.656,388.111 1297.665,388.367 1297.665,390.5 C1297.665,392.633 1297.655,392.89 1297.616,393.733 C1297.60672,394.240302 1297.51172,394.742382 1297.335,395.218 C1297.20462,395.565114 1296.99983,395.879474 1296.735,396.139 C1296.4766,396.404726 1296.16235,396.609672 1295.815,396.739 C1295.33771,396.915188 1294.83374,397.008203 1294.325,397.014 C1293.476,397.052 1293.225,397.061 1291.086,397.061 C1288.947,397.061 1288.695,397.051 1287.847,397.012 C1287.33775,397.002708 1286.8337,396.907713 1286.356,396.731 C1286.00865,396.602236 1285.69461,396.397204 1285.437,396.131 C1285.16938,395.874168 1284.96413,395.559456 1284.837,395.211 C1284.66081,394.733538 1284.56616,394.22985 1284.557,393.721 C1284.527,392.881 1284.516,392.621 1284.516,390.492 C1284.516,388.363 1284.527,388.101 1284.557,387.251 C1284.56618,386.742477 1284.66083,386.239121 1284.837,385.762 C1284.96209,385.412238 1285.16762,385.096761 1285.437,384.841 C1285.69207,384.571733 1286.00687,384.366203 1286.356,384.241 C1286.82998,384.063375 1287.3309,383.968331 1287.837,383.96 C1288.687,383.93 1288.937,383.92 1291.076,383.92 L1291.106,383.94 Z M1291.106,386.392 C1288.83721,386.392 1286.998,388.231214 1286.998,390.5 C1286.998,392.768786 1288.83721,394.608 1291.106,394.608 C1293.37479,394.608 1295.214,392.768786 1295.214,390.5 C1295.214,389.410491 1294.78119,388.365605 1294.01079,387.595205 C1293.2404,386.824806 1292.19551,386.392 1291.106,386.392 L1291.106,386.392 Z M1291.106,393.167 C1289.63306,393.167 1288.439,391.972943 1288.439,390.5 C1288.439,389.027057 1289.63306,387.833 1291.106,387.833 C1292.57894,387.833 1293.773,389.027057 1293.773,390.5 C1293.77327,391.207414 1293.49236,391.88593 1292.99215,392.386147 C1292.49193,392.886364 1291.81341,393.167265 1291.106,393.167 L1291.106,393.167 Z M1296.337,386.23 C1296.3374,386.618375 1296.10376,386.968732 1295.74507,387.117637 C1295.38637,387.266542 1294.9733,387.184655 1294.69853,386.910176 C1294.42377,386.635697 1294.34145,386.222705 1294.48998,385.863855 C1294.63851,385.505005 1294.98863,385.271 1295.377,385.271 C1295.90658,385.27155 1296.3359,385.700426 1296.337,386.23 Z" id="Icon_simple-instagram"></path>
            </g>
        </g>
    </g>
</svg>