<?xml version="1.0" encoding="UTF-8" standalone="no"?>
<svg width="17px" height="17px" viewBox="0 0 17 17" version="1.1" xmlns="http://www.w3.org/2000/svg" xmlns:xlink="http://www.w3.org/1999/xlink">
    <!-- Generator: Sketch 43.1 (39012) - http://www.bohemiancoding.com/sketch -->
    <title>linkedin-d</title>
    <desc>Created with Sketch.</desc>
    <defs></defs>
    <g id="Page-1" stroke="none" stroke-width="1" fill="none" fill-rule="evenodd">
        <g id="linkedin-d" fill-rule="nonzero" fill="#666666">
            <path d="M14.963,0.5 L1.245,0.5 C0.61371,0.504948 0.10488,1.018696 0.106,1.65 L0.106,15.35 C0.10488,15.981304 0.61371,16.495052 1.245,16.5 L14.963,16.5 C15.59516,16.495606 16.10547,15.982179 16.106,15.35 L16.106,1.65 C16.10547,1.017821 15.59516,0.504394 14.963,0.5 Z M4.942,14.214 L2.57,14.214 L2.57,6.579 L4.945,6.579 L4.945,14.215 L4.942,14.214 Z M3.756,5.536 C2.99661,5.536 2.381,4.920392 2.381,4.161 C2.381,3.401608 2.99661,2.786 3.756,2.786 C4.51539,2.786 5.131,3.401608 5.131,4.161 C5.13045,4.920163 4.51516,5.535448 3.756,5.536 L3.756,5.536 Z M13.831,14.215 L11.46,14.215 L11.46,10.5 C11.46,9.614 11.442,8.475 10.228,8.475 C8.992,8.475 8.803,9.439 8.803,10.436 L8.803,14.215 L6.431,14.215 L6.431,6.579 L8.706,6.579 L8.706,7.621 L8.738,7.621 C9.2034,6.828819 10.06583,6.355753 10.984,6.389 C13.384,6.389 13.83,7.971 13.83,10.028 L13.831,14.215 Z" id="Icon_awesome-linkedin"></path>
        </g>
    </g>
</svg>