<?xml version="1.0" encoding="UTF-8" standalone="no"?>
<svg width="17px" height="17px" viewBox="0 0 17 17" version="1.1" xmlns="http://www.w3.org/2000/svg" xmlns:xlink="http://www.w3.org/1999/xlink">
    <!-- Generator: Sketch 43.1 (39012) - http://www.bohemiancoding.com/sketch -->
    <title>Icon_awesome-linkedin</title>
    <desc>Created with Sketch.</desc>
    <defs></defs>
    <g id="Page-1" stroke="none" stroke-width="1" fill="none" fill-rule="evenodd">
        <g id="Visengine_Landing_1---1-–-6" transform="translate(-1137.000000, -382.000000)" fill-rule="nonzero" fill="#CCCCCC">
            <g id="Visengine_Landing_1_-_1_6" transform="translate(-186.000000, 0.000000)">
                <path d="M1337.963,382.5 L1324.245,382.5 C1323.61371,382.504948 1323.10488,383.018696 1323.106,383.65 L1323.106,397.35 C1323.10488,397.981304 1323.61371,398.495052 1324.245,398.5 L1337.963,398.5 C1338.59516,398.495606 1339.10547,397.982179 1339.106,397.35 L1339.106,383.65 C1339.10547,383.017821 1338.59516,382.504394 1337.963,382.5 Z M1327.942,396.214 L1325.57,396.214 L1325.57,388.579 L1327.945,388.579 L1327.945,396.215 L1327.942,396.214 Z M1326.756,387.536 C1325.99661,387.536 1325.381,386.920392 1325.381,386.161 C1325.381,385.401608 1325.99661,384.786 1326.756,384.786 C1327.51539,384.786 1328.131,385.401608 1328.131,386.161 C1328.13045,386.920163 1327.51516,387.535448 1326.756,387.536 L1326.756,387.536 Z M1336.831,396.215 L1334.46,396.215 L1334.46,392.5 C1334.46,391.614 1334.442,390.475 1333.228,390.475 C1331.992,390.475 1331.803,391.439 1331.803,392.436 L1331.803,396.215 L1329.431,396.215 L1329.431,388.579 L1331.706,388.579 L1331.706,389.621 L1331.738,389.621 C1332.2034,388.828819 1333.06583,388.355753 1333.984,388.389 C1336.384,388.389 1336.83,389.971 1336.83,392.028 L1336.831,396.215 Z" id="Icon_awesome-linkedin"></path>
            </g>
        </g>
    </g>
</svg>