<?xml version="1.0" encoding="UTF-8" standalone="no"?>
<svg width="17px" height="17px" viewBox="0 0 17 17" version="1.1" xmlns="http://www.w3.org/2000/svg" xmlns:xlink="http://www.w3.org/1999/xlink">
    <!-- Generator: Sketch 43.1 (39012) - http://www.bohemiancoding.com/sketch -->
    <title>Icon_awesome-linkedin</title>
    <desc>Created with Sketch.</desc>
    <defs></defs>
    <g id="Page-1" stroke="none" stroke-width="1" fill="none" fill-rule="evenodd">
        <g id="Visengine_Landing_1_mobile---1-–-3" transform="translate(-188.000000, -575.000000)" fill-rule="nonzero" fill="#FFFFFF">
            <g id="Visengine_Landing_1_mobile_-_1_3">
                <g id="Group_1665" transform="translate(97.000000, 488.000000)">
                    <g id="Group_1658" transform="translate(10.500000, 86.250000)">
                        <path d="M95.953,1 L82.235,1 C81.603714,1.00494827 81.0948808,1.51869562 81.096,2.15 L81.096,15.85 C81.0948808,16.4813044 81.603714,16.9950517 82.235,17 L95.953,17 C96.5851636,16.9956063 97.095466,16.4821786 97.096,15.85 L97.096,2.15 C97.095466,1.51782138 96.5851636,1.00439372 95.953,1 Z M85.932,14.714 L83.56,14.714 L83.56,7.079 L85.935,7.079 L85.935,14.715 L85.932,14.714 Z M84.746,6.036 C83.9866085,6.036 83.371,5.42039153 83.371,4.661 C83.371,3.90160847 83.9866085,3.286 84.746,3.286 C85.5053915,3.286 86.121,3.90160847 86.121,4.661 C86.1204485,5.42016297 85.505163,6.03544848 84.746,6.036 L84.746,6.036 Z M94.821,14.715 L92.45,14.715 L92.45,11 C92.45,10.114 92.432,8.975 91.218,8.975 C89.982,8.975 89.793,9.939 89.793,10.936 L89.793,14.715 L87.421,14.715 L87.421,7.079 L89.696,7.079 L89.696,8.121 L89.728,8.121 C90.1934015,7.3288189 91.0558257,6.8557527 91.974,6.889 C94.374,6.889 94.82,8.471 94.82,10.528 L94.821,14.715 Z" id="Icon_awesome-linkedin"></path>
                    </g>
                </g>
            </g>
        </g>
    </g>
</svg>