<?xml version="1.0" encoding="UTF-8" standalone="no"?>
<svg width="96px" height="96px" viewBox="0 0 96 96" version="1.1" xmlns="http://www.w3.org/2000/svg" xmlns:xlink="http://www.w3.org/1999/xlink">
    <!-- Generator: Sketch 43.1 (39012) - http://www.bohemiancoding.com/sketch -->
    <title>Group 1654</title>
    <desc>Created with Sketch.</desc>
    <defs></defs>
    <g id="Page-1" stroke="none" stroke-width="1" fill="none" fill-rule="evenodd">
        <g id="Group-1654" fill-rule="nonzero">
            <circle id="Ellipse_6" fill="#FFFFFF" opacity="0.9" cx="48" cy="48" r="48"></circle>
            <path d="M41.6,61.714 C40.521542,63.1519449 38.8294302,63.9987416 37.032,64 L30.714,64 C27.5582449,64 25,61.4417551 25,58.286 L25,42.286 C24.9999612,39.5336603 26.961406,37.1721092 29.667,36.667 C30.1721092,33.961406 32.5336603,31.9999612 35.286,32 L60.429,32 C63.1813397,31.9999612 65.5428908,33.961406 66.048,36.667 C68.753594,37.1721092 70.7150388,39.5336603 70.715,42.286 L70.715,58.286 C70.715,59.8016203 70.1128538,61.2551501 69.0410546,62.3267617 C67.9692555,63.3983734 66.5156203,64.0002652 65,64 L58.683,64 C56.884162,64 55.1903028,63.1530704 54.111,61.714 L41.6,61.714 Z M42.884,59.428 L52.823,59.428 C51.8893573,58.0044202 50.3024279,57.1457572 48.6,57.143 L47.119,57.143 C45.4131882,57.1429482 43.8221624,58.0023728 42.887,59.429 L42.884,59.428 Z M32.052,36.571 L63.662,36.571 C63.1773522,35.2011076 61.8820962,34.2852539 60.429,34.285 L35.286,34.285 C33.8325368,34.2848302 32.5367702,35.2007616 32.052,36.571 Z M40.552,58.917 C41.7963143,56.428576 44.3398116,54.8567953 47.122,54.857 L48.6,54.857 C51.3821884,54.8567953 53.9256857,56.428576 55.17,58.917 L55.621,59.817 C56.2005904,60.9804401 57.3881857,61.7161529 58.688,61.717 L65,61.717 C66.8937844,61.717 68.429,60.1817844 68.429,58.288 L68.429,42.288 C68.4295306,41.3782262 68.0684963,40.5055327 67.4253765,39.8620379 C66.7822568,39.218543 65.909774,38.8569998 65,38.857 L30.714,38.857 C28.8202156,38.857 27.285,40.3922156 27.285,42.286 L27.285,58.286 C27.285,60.1797844 28.8202156,61.715 30.714,61.715 L37.032,61.715 C38.3318811,61.7143874 39.5195898,60.9786044 40.099,59.815 L40.552,58.917 Z M37.574,54.857 C34.4182449,54.857 31.86,52.2987551 31.86,49.143 C31.86,45.9872449 34.4182449,43.429 37.574,43.429 C40.7297551,43.429 43.288,45.9872449 43.288,49.143 C43.2880002,50.6589669 42.6855794,52.1128 41.6133476,53.1844692 C40.5411158,54.2561383 39.0869667,54.8577959 37.571,54.857 L37.574,54.857 Z M37.574,52.571 C38.960901,52.571 40.2112389,51.735551 40.7419829,50.4542215 C41.272727,49.172892 40.9793563,47.698018 39.9986692,46.7173308 C39.017982,45.7366437 37.543108,45.443273 36.2617785,45.9740171 C34.980449,46.5047611 34.145,47.755099 34.145,49.142 C34.1449993,51.0346135 35.6783873,52.5693442 37.571,52.571 L37.574,52.571 Z M58.145,54.857 C54.9892449,54.857 52.431,52.2987551 52.431,49.143 C52.431,45.9872449 54.9892449,43.429 58.145,43.429 C61.3007551,43.429 63.859,45.9872449 63.859,49.143 C63.8590001,50.6587936 63.2567166,52.112475 62.1847011,53.1841154 C61.1126856,54.2557558 59.6587935,54.8575306 58.143,54.857 L58.145,54.857 Z M58.145,52.571 C59.531901,52.571 60.7822389,51.735551 61.3129829,50.4542215 C61.843727,49.172892 61.5503563,47.698018 60.5696692,46.7173308 C59.588982,45.7366437 58.114108,45.443273 56.8327785,45.9740171 C55.551449,46.5047611 54.716,47.755099 54.716,49.142 C54.7159997,51.0350036 56.2499967,52.5698959 58.143,52.571 L58.145,52.571 Z" id="cardboardvr_119986" fill="#26B4B7"></path>
        </g>
    </g>
</svg>