<?xml version="1.0" encoding="UTF-8" standalone="no"?>
<svg width="24px" height="17px" viewBox="0 0 24 17" version="1.1" xmlns="http://www.w3.org/2000/svg" xmlns:xlink="http://www.w3.org/1999/xlink">
    <!-- Generator: Sketch 43.1 (39012) - http://www.bohemiancoding.com/sketch -->
    <title>Icon_simple-youtube</title>
    <desc>Created with Sketch.</desc>
    <defs></defs>
    <g id="Page-1" stroke="none" stroke-width="1" fill="none" fill-rule="evenodd">
        <g id="Visengine_Landing_1_mobile---1-–-3" transform="translate(-228.000000, -575.000000)" fill-rule="nonzero" fill="#FFFFFF">
            <g id="Visengine_Landing_1_mobile_-_1_3">
                <g id="Group_1665" transform="translate(97.000000, 488.000000)">
                    <g id="Group_1658" transform="translate(10.500000, 86.250000)">
                        <path d="M143.513,3.471 C143.243871,2.5028709 142.487859,1.74609952 141.52,1.476 C139.736,0.998 132.554,0.998 132.554,0.998 C132.554,0.998 125.39,0.99 123.59,1.476 C122.621757,1.74579748 121.865312,2.50262169 121.596,3.471 C121.257136,5.29772448 121.089742,7.15212171 121.096,9.01 C121.091042,10.8608653 121.258431,12.7081719 121.596,14.528 C121.865916,15.4956094 122.622255,16.2515693 123.59,16.521 C125.373,17 132.556,17 132.556,17 C132.556,17 139.719,17 141.522,16.521 C142.488727,16.2511492 143.244149,15.4957267 143.514,14.529 C143.84385,12.7084489 144.003539,10.8611487 143.991,9.011 C144.004845,7.15384073 143.845151,5.29944938 143.514,3.472 L143.513,3.471 Z M130.262,12.437 L130.262,5.576 L136.239,9.013 L130.262,12.437 Z" id="Icon_simple-youtube"></path>
                    </g>
                </g>
            </g>
        </g>
    </g>
</svg>