<?xml version="1.0" encoding="UTF-8" standalone="no"?>
<svg width="23px" height="17px" viewBox="0 0 23 17" version="1.1" xmlns="http://www.w3.org/2000/svg" xmlns:xlink="http://www.w3.org/1999/xlink">
    <!-- Generator: Sketch 43.1 (39012) - http://www.bohemiancoding.com/sketch -->
    <title>Icon_simple-youtube</title>
    <desc>Created with Sketch.</desc>
    <defs></defs>
    <g id="Page-1" stroke="none" stroke-width="1" fill="none" fill-rule="evenodd">
        <g id="Visengine_Landing_1---1-–-6" transform="translate(-1177.000000, -382.000000)" fill-rule="nonzero" fill="#000000">
            <g id="Visengine_Landing_1_-_1_6" transform="translate(-186.000000, 0.000000)">
                <path d="M1385.522,384.971 C1385.25287,384.002871 1384.49686,383.2461 1383.529,382.976 C1381.745,382.498 1374.563,382.498 1374.563,382.498 C1374.563,382.498 1367.399,382.49 1365.599,382.976 C1364.63076,383.245797 1363.87431,384.002622 1363.605,384.971 C1363.26614,386.797724 1363.09874,388.652122 1363.105,390.51 C1363.10004,392.360865 1363.26743,394.208172 1363.605,396.028 C1363.87492,396.995609 1364.63126,397.751569 1365.599,398.021 C1367.382,398.5 1374.565,398.5 1374.565,398.5 C1374.565,398.5 1381.728,398.5 1383.531,398.021 C1384.49773,397.751149 1385.25315,396.995727 1385.523,396.029 C1385.85285,394.208449 1386.01254,392.361149 1386,390.511 C1386.01384,388.653841 1385.85415,386.799449 1385.523,384.972 L1385.522,384.971 Z M1372.271,393.937 L1372.271,387.076 L1378.248,390.513 L1372.271,393.937 Z" id="Icon_simple-youtube"></path>
            </g>
        </g>
    </g>
</svg>