<?xml version="1.0" encoding="UTF-8" standalone="no"?>
<svg width="96px" height="96px" viewBox="0 0 96 96" version="1.1" xmlns="http://www.w3.org/2000/svg" xmlns:xlink="http://www.w3.org/1999/xlink">
    <!-- Generator: Sketch 43.1 (39012) - http://www.bohemiancoding.com/sketch -->
    <title>Group 5</title>
    <desc>Created with Sketch.</desc>
    <defs></defs>
    <g id="Page-1" stroke="none" stroke-width="1" fill="none" fill-rule="evenodd">
        <g id="Group-5">
            <g id="Group-Copy" fill-opacity="0.9" fill="#FFFFFF">
                <circle id="Oval" cx="48" cy="48" r="48"></circle>
            </g>
            <g id="Group-3" transform="translate(25.000000, 32.000000)" fill="#50B5B7">
                <g id="Group-2" transform="translate(6.500000, 11.000000)" fill-rule="nonzero">
                    <path d="M6,12 C2.6862915,12 0,9.3137085 0,6 C0,2.6862915 2.6862915,0 6,0 C9.3137085,0 12,2.6862915 12,6 C12,9.3137085 9.3137085,12 6,12 Z M6,9.5 C7.93299662,9.5 9.5,7.93299662 9.5,6 C9.5,4.06700338 7.93299662,2.5 6,2.5 C4.06700338,2.5 2.5,4.06700338 2.5,6 C2.5,7.93299662 4.06700338,9.5 6,9.5 Z" id="Oval-2"></path>
                    <path d="M26.5,12 C23.1862915,12 20.5,9.3137085 20.5,6 C20.5,2.6862915 23.1862915,0 26.5,0 C29.8137085,0 32.5,2.6862915 32.5,6 C32.5,9.3137085 29.8137085,12 26.5,12 Z M26.5,9.5 C28.4329966,9.5 30,7.93299662 30,6 C30,4.06700338 28.4329966,2.5 26.5,2.5 C24.5670034,2.5 23,4.06700338 23,6 C23,7.93299662 24.5670034,9.5 26.5,9.5 Z" id="Oval-2-Copy"></path>
                </g>
                <path d="M11.338718,31.8591309 L4.66097986,31.8591309 C1.79447616,31.8591309 0,29.2122482 0,25.7795677 L0,9.97412109 C0,7.47851695 1.11221448,5.74560241 2.91643059,4.77948159 C3.52958273,4.45115116 4.1751357,4.23749878 4.81906682,4.1121807 C5.21032779,4.0360358 5.52571261,4.00537283 5.76301271,4 L40.6461961,4 C42.6384347,4 44.0864466,5.08884735 45.0123398,6.79402633 C45.3151024,7.35161161 45.5414135,7.938495 45.7058432,8.52428091 C45.8054616,8.87917446 45.8639813,9.16358271 45.8912804,9.34611888 L45.9059599,9.44427372 L45.9049667,9.54351521 C45.9039286,9.64723895 45.9039286,9.64723895 45.8992535,10.121703 C45.894708,10.58505 45.8896428,11.1076394 45.884188,11.6783217 C45.8686028,13.3088452 45.8530177,14.9979652 45.8384719,16.6564704 C45.8327855,17.3048248 45.8273605,17.937081 45.8222335,18.5500728 C45.7903713,22.3596259 45.7720106,25.1744198 45.7720106,26.5732422 C45.7720106,28.7303547 44.6743258,30.2351836 42.9421683,31.084891 C42.369359,31.3658818 41.7681617,31.5549439 41.1687495,31.6730845 C40.8057196,31.7446356 40.5139686,31.7776765 40.2764501,31.7887265 C40.1953155,31.7897102 40.0453807,31.7914262 39.8383943,31.7936303 C39.4936531,31.7973013 39.1153812,31.8009717 38.7153158,31.8043975 C37.9478808,31.8109691 37.1941001,31.8158409 36.4877658,31.8183057 C34.7746762,31.8242836 33.5454679,31.8157774 32.9638327,31.7873255 C30.9624811,31.6894252 29.8446085,30.7413636 28.1414866,27.8651672 C27.7704525,27.2385727 27.2828716,26.6955898 26.703407,26.230768 C26.1984148,25.8256847 25.6527352,25.5022615 25.1082604,25.2555826 C24.8815319,25.1528614 24.6964278,25.0809385 24.5686694,25.0368986 C24.4761047,25.034347 24.3587064,25.0314624 24.2194523,25.0285653 C23.2388718,25.0081652 22.1797573,25.0081652 21.173452,25.0420179 C20.0406828,25.0801249 17.4058442,27.4881798 16.3635171,29.4484307 C16.0917288,29.959569 15.7786324,30.3902679 15.4284164,30.7425649 C14.5194498,31.6569329 13.5035487,31.9469519 12.6353782,31.8591914 C12.4260467,31.8591309 12.3244699,31.8591309 11.338718,31.8591309 Z M43.2988707,9.19991647 C43.1816578,8.78234164 43.0210578,8.36586429 42.8153276,7.98697953 C42.2883842,7.01652985 41.6014731,6.5 40.6461961,6.5 L5.79323059,6.4996347 C5.71824951,6.50144784 5.54002356,6.51877568 5.29664212,6.56614114 C4.88283589,6.64667366 4.47065151,6.78309032 4.09658211,6.98339683 C3.08016529,7.52766725 2.5,8.43160878 2.5,9.97412109 L2.5,25.7795677 C2.5,27.9909064 3.42759917,29.3591309 4.66097986,29.3591309 L12.8291891,29.3591309 C12.9364751,29.3732749 13.0019874,29.366449 13.0873194,29.3420885 C13.2667509,29.2908645 13.4557097,29.18094 13.6554206,28.9800424 C13.8284222,28.8060128 13.9968777,28.5742834 14.1561683,28.2747138 C15.5745879,25.6071653 18.8442131,22.6189606 21.0893982,22.5434313 C22.1474005,22.5078395 23.2492181,22.5078395 24.2714512,22.5291061 C24.4207651,22.5322125 24.5551037,22.5355469 24.6724969,22.5388913 C24.7437988,22.5409225 24.7930032,22.5424897 24.8216485,22.543487 L24.9701887,22.5486772 L25.1133702,22.5885546 C25.341234,22.6520167 25.6970895,22.777746 26.1399606,22.9783925 C26.8646544,23.3067212 27.5881435,23.7355317 28.2677086,24.2806499 C29.0718197,24.9256736 29.7603172,25.6924025 30.2926387,26.5913758 C31.6118798,28.8192824 32.1110433,29.2426202 33.0859793,29.2903112 C33.6059521,29.3157468 34.8163621,29.3241229 36.479042,29.3183209 C37.180731,29.3158723 37.9304133,29.311027 38.6939089,29.3044892 C39.0921485,29.301079 39.4686981,29.2974253 39.8117746,29.293772 C40.0174789,29.2915816 40.1661912,29.2898796 40.198416,29.2904009 C40.2749163,29.2865478 40.4491811,29.2668123 40.6853143,29.2202718 C41.0845073,29.1415932 41.4819151,29.0166179 41.8411374,28.840402 C42.7719271,28.3838044 43.2720106,27.6982341 43.2720106,26.5732422 C43.2720106,25.1647991 43.290396,22.3462167 43.322321,18.5291641 C43.3274508,17.9158216 43.3328788,17.2832281 43.338568,16.6345452 C43.3531201,14.9753243 43.3687112,13.2855647 43.3843022,11.6544268 C43.3897591,11.0835275 43.3948263,10.5607292 43.3993738,10.0971786 C43.4021618,9.81423402 43.4032881,9.69992772 43.4039634,9.63174043 C43.3846237,9.53257598 43.350476,9.3837619 43.2988707,9.19991647 Z" id="Path-3" fill-rule="nonzero"></path>
                <rect id="Rectangle-2" x="16" y="27" width="14" height="2.5"></rect>
                <path d="M36.4174954,2.59148434 C36.7385435,2.71206504 37.0592372,2.86754412 37.3508681,3.05671808 C38.0935564,3.53848215 38.4889495,4.11889968 38.4889495,4.86482199 L40.9889495,4.86482199 C40.9889495,3.16218763 40.1034759,1.8623562 38.7113862,0.959341054 C38.2558448,0.663842279 37.7759968,0.431201833 37.2965032,0.251111456 C37.004344,0.141380998 36.7684854,0.0711992771 36.6139159,0.0342511828 L36.4706288,0 L10.1321098,0 C7.98295322,0 6.41081579,0.986481126 5.42513227,2.57509859 C5.0922442,3.11161137 4.85118449,3.67771437 4.68371603,4.24336976 C4.58149804,4.58862972 4.52469438,4.86793656 4.5,5.05241808 L6.97789902,5.38410536 C6.98640368,5.32057052 7.01787003,5.16584873 7.08086493,4.95307189 C7.1887513,4.58866594 7.34373315,4.2247076 7.54944531,3.89316313 C8.10261958,3.00161702 8.9020377,2.5 10.1321098,2.5 L36.1531791,2.5 C36.2220161,2.52145616 36.3117982,2.55178613 36.4174954,2.59148434 Z" id="Path-4" fill-rule="nonzero"></path>
            </g>
        </g>
    </g>
</svg>