<svg xmlns="http://www.w3.org/2000/svg" x="0px" y="0px" viewBox="0 0 225 50">
	<path class="st2" d="M172.7,43.6l-1.1,0.9c0.7,1,2.1,1.5,4.1,1.5c2.1,0,3.5-1,3.5-2.6c0-2-1.7-2.4-3.3-2.7
		c-1.3-0.3-2.2-0.5-2.2-1.4c0-0.7,0.6-1.2,1.8-1.2c1,0,2,0.3,2.5,0.9l1-1c-0.7-0.7-1.8-1.2-3.5-1.2c-2,0-3.3,1-3.3,2.5
		c0,1.9,1.7,2.3,3.4,2.7c1.3,0.3,2.1,0.6,2.1,1.5c0,0.8-0.6,1.3-2,1.3C174.6,44.7,173.4,44.5,172.7,43.6 M166.4,36.9h-6.1v9h6.1
		v-1.3h-4.6v-2.6h4.2v-1.2h-4.2v-2.5h4.6V36.9z M117.5,36.9h-1.5v9h1.5v-3.9h4.8v3.9h1.5v-9h-1.5v3.7h-4.8V36.9z M102.4,43.2
		l-1.5,1.3c0.8,0.9,2.3,1.5,4.5,1.5c2.4,0,3.9-1.1,3.9-2.8c0-2.1-1.8-2.5-3.6-2.7c-1.4-0.2-2.1-0.4-2.1-1.1c0-0.5,0.5-0.8,1.7-0.8
		c0.9,0,2,0.3,2.5,0.7l1.3-1.4c-0.7-0.6-1.9-1.1-3.8-1.1c-2.1,0-3.8,0.9-3.8,2.7c0,2.1,1.9,2.5,3.7,2.8c1.3,0.2,2,0.4,2,1.1
		c0,0.6-0.5,0.9-1.8,0.9C104.3,44.2,103.2,44,102.4,43.2 M90.4,42.1l1.4-3.3h0.4l1.4,3.3H90.4z M90.6,36.9l-3.8,9h2.1l0.9-2h4.7
		l0.9,2h2.1l-3.8-9H90.6z M68.5,36.9h-6.8v9h6.8v-1.8h-4.6v-1.9h4.2l0-1.7h-4.2v-1.7h4.6V36.9z M22.3,13l3-3.5
		c-1.2-1.3-2.5-2.3-3.9-2.8c-1.4-0.6-3.1-0.9-5-0.9c-1.8,0-3.4,0.3-4.8,0.9C10.4,7.2,9.3,8,8.6,9c-0.7,1-1,2.2-1,3.5
		c0,1.3,0.3,2.4,1,3.2c0.6,0.8,1.5,1.5,2.7,2c1.2,0.5,2.6,0.9,4.4,1.3c1.4,0.3,2.5,0.6,3.1,0.9c0.6,0.3,0.9,0.7,0.9,1.2
		c0,0.6-0.3,1.1-0.9,1.4c-0.6,0.3-1.4,0.5-2.6,0.5c-1.4,0-2.7-0.2-3.7-0.7c-1-0.5-1.9-1.3-2.7-2.4L7,23.5c1.1,1.2,2.3,2.1,3.8,2.6
		c1.5,0.6,3.4,0.9,5.7,0.9c1.7,0,3.2-0.3,4.5-0.8c1.3-0.5,2.4-1.2,3.1-2.2c0.8-1,1.1-2.1,1.1-3.4c0-1.8-0.6-3.2-1.8-4.2
		c-1.2-1-3.3-1.8-6.1-2.3c-1.5-0.3-2.5-0.6-3.1-0.9c-0.6-0.3-0.9-0.7-0.9-1.3c0-0.6,0.3-1.1,0.9-1.5c0.6-0.4,1.4-0.6,2.5-0.6
		c1.3,0,2.4,0.2,3.3,0.7C20.8,11.2,21.6,12,22.3,13 M38.6,18.9c0,1.5-0.2,2.6-0.7,3.3c-0.5,0.7-1.2,1-2.2,1c-1,0-1.7-0.3-2.2-1
		c-0.5-0.7-0.7-1.8-0.7-3.3c0-1.5,0.2-2.6,0.7-3.3s1.2-1,2.2-1c1,0,1.7,0.3,2.2,1C38.4,16.3,38.6,17.4,38.6,18.9 M41.7,24.9
		c1.4-1.4,2.2-3.4,2.2-6c0-2.6-0.7-4.6-2.2-6c-1.4-1.4-3.5-2.1-6.1-2.1c-2.6,0-4.6,0.7-6.1,2.1c-1.4,1.4-2.2,3.4-2.2,6
		c0,2.6,0.7,4.6,2.2,6C31,26.3,33,27,35.7,27C38.3,27,40.3,26.3,41.7,24.9 M49.9,42.1l1.4-3.3h0.4l1.4,3.3H49.9z M50.1,36.9l-3.8,9
		h2.1l0.9-2h4.7l0.9,2h2.1l-3.8-9H50.1z M57.8,26.7h4.7V11.1h-5.3v8.3c0,1.2-0.3,2.1-0.8,2.7c-0.5,0.6-1.2,0.9-2.1,0.9
		c-0.7,0-1.3-0.2-1.6-0.6c-0.4-0.4-0.5-1.1-0.5-2.2v-9.1h-5.3v10.4c0,1.9,0.5,3.3,1.4,4.2c0.9,0.9,2.3,1.3,3.9,1.3
		c2.6,0,4.4-1.1,5.4-3.2L57.8,26.7z M74.3,26.2l0.3-3.3c-0.6,0.2-1.1,0.3-1.6,0.3c-0.5,0-0.9-0.1-1.1-0.4c-0.2-0.3-0.3-0.8-0.3-1.5
		V4.5h-5.3v17.6c0,1.7,0.4,3,1.1,3.8c0.8,0.8,2,1.2,3.6,1.2c0.6,0,1.2-0.1,1.8-0.2C73.4,26.7,73.9,26.5,74.3,26.2 M80.5,41.4
		c0,1.9-1,2.7-2.8,2.7h-1.2v-5.3h1C79.6,38.8,80.5,39.5,80.5,41.4 M82.7,41.4c0-3.6-2.4-4.5-5-4.5h-3.3v9h3.1
		C80.1,45.9,82.7,44.9,82.7,41.4 M104.6,26.7h4.7V6.1H102l-3.2,10.5L97.6,21h-0.1l-1.2-4.4L93.1,6.1h-7.7v20.6h4.8v-9.5l-0.2-6.3
		h0.1l5.1,15.8h4.3l5.1-15.8h0.1l-0.2,6.3V26.7z M122.1,21.4c0,0.7-0.3,1.2-0.9,1.6c-0.6,0.4-1.2,0.6-2,0.6c-0.5,0-0.9-0.1-1.1-0.3
		c-0.3-0.2-0.4-0.6-0.4-1c0-0.4,0.1-0.8,0.4-1s0.8-0.4,1.4-0.6l2.5-0.6V21.4z M129.1,26.5l0.4-3c-0.2,0.1-0.6,0.1-1,0.1
		c-0.8,0-1.1-0.4-1.1-1.2v-5.7c0-2-0.6-3.5-1.9-4.5c-1.3-1-3.1-1.5-5.6-1.5c-2.1,0-3.7,0.4-5,1.3c-1.2,0.8-2,2-2.3,3.5l4.3,1.3
		c0.1-0.9,0.5-1.5,1-1.8c0.5-0.4,1.1-0.6,1.9-0.6c0.7,0,1.2,0.2,1.6,0.6c0.4,0.4,0.6,1,0.6,1.7v0.6l-3.5,0.7
		c-2.2,0.4-3.7,1.1-4.7,1.9c-0.9,0.8-1.4,1.9-1.4,3.2c0,1.3,0.4,2.2,1.3,2.9c0.8,0.7,2,1,3.6,1c2.8,0,4.6-0.8,5.6-2.4
		c0.4,1.6,1.8,2.4,4,2.4C127.8,27,128.5,26.9,129.1,26.5 M133.9,38.1c1.6,0,3.1,1.1,3.1,3.3c0,2.2-1.5,3.3-3.1,3.3
		c-1.6,0-3.1-1.1-3.1-3.3C130.8,39.2,132.3,38.1,133.9,38.1 M133.9,36.7c-2.2,0-4.7,1.4-4.7,4.6c0,3.2,2.4,4.6,4.7,4.6
		c2.2,0,4.6-1.4,4.6-4.6C138.6,38.2,136.2,36.7,133.9,36.7 M142.4,15.6l0.6-4.5c-0.4-0.2-1-0.3-1.7-0.3c-1.2,0-2.2,0.3-3,1
		c-0.8,0.6-1.4,1.5-1.8,2.7l-0.2-3.4h-4.7v15.6h5.3v-7.9c0-1.2,0.3-2.1,1-2.7c0.7-0.6,1.5-1,2.5-1c0.4,0,0.8,0,1.1,0.1
		C141.9,15.4,142.2,15.5,142.4,15.6 M146,36.9h-2v9h1.4V39l2.8,6.9h1.2l2.8-6.9v6.9h1.5v-9h-1.9l-2.9,7L146,36.9z M156.1,18.9
		c0,1.4-0.3,2.5-0.8,3.2c-0.5,0.7-1.2,1-2.2,1c-0.9,0-1.6-0.3-2.1-1c-0.5-0.7-0.8-1.7-0.8-3v-0.3c0-1.3,0.2-2.3,0.8-3
		c0.5-0.7,1.2-1.1,2.1-1.1c0.9,0,1.7,0.3,2.2,1C155.9,16.4,156.1,17.5,156.1,18.9 M159.8,24.9c1.1-1.4,1.7-3.4,1.7-5.9
		c0-2.6-0.6-4.6-1.7-6c-1.1-1.4-2.7-2.2-4.7-2.2c-1.1,0-2.1,0.3-2.9,0.8c-0.8,0.5-1.4,1.2-1.9,2.2V4.5H145v22.2h4.7l0.2-3.3
		c0.4,1.1,1.1,2,2,2.6c0.9,0.7,2,1,3.2,1C157.1,27,158.7,26.3,159.8,24.9 M174.9,17.6H169c0.3-2,1.3-3.1,3-3.1
		C173.7,14.5,174.6,15.5,174.9,17.6 M179.7,20.4c0.1-0.5,0.2-1,0.2-1.8c0-2.5-0.7-4.4-2-5.8c-1.3-1.4-3.3-2.1-5.8-2.1
		c-2.6,0-4.6,0.7-6,2.1c-1.4,1.4-2.1,3.4-2.1,6s0.7,4.6,2.2,6c1.4,1.4,3.5,2.1,6.3,2.1c1.8,0,3.4-0.3,4.6-1c1.3-0.7,2.1-1.7,2.5-3
		l-4.3-1.4c-0.2,0.6-0.5,1-1,1.3c-0.5,0.3-1.1,0.4-1.9,0.4c-0.9,0-1.6-0.2-2.2-0.7c-0.6-0.5-0.9-1.2-1.1-2.2H179.7z M190.8,26.2
		l0.3-3.3c-0.6,0.2-1.1,0.3-1.6,0.3c-0.5,0-0.9-0.1-1.1-0.4c-0.2-0.3-0.3-0.8-0.3-1.5V4.5h-5.3v17.6c0,1.7,0.4,3,1.1,3.8
		c0.7,0.8,2,1.2,3.6,1.2c0.6,0,1.2-0.1,1.8-0.2C189.9,26.7,190.4,26.5,190.8,26.2 M201,26.2l0.3-3.3c-0.6,0.2-1.1,0.3-1.6,0.3
		c-0.5,0-0.9-0.1-1.1-0.4c-0.2-0.3-0.3-0.8-0.3-1.5V4.5H193v17.6c0,1.7,0.4,3,1.1,3.8c0.8,0.8,2,1.2,3.6,1.2c0.6,0,1.2-0.1,1.8-0.2
		C200.1,26.7,200.6,26.5,201,26.2 M212,21.4c0,0.7-0.3,1.2-0.9,1.6c-0.6,0.4-1.2,0.6-2,0.6c-0.5,0-0.9-0.1-1.1-0.3
		c-0.3-0.2-0.4-0.6-0.4-1c0-0.4,0.1-0.8,0.4-1c0.3-0.2,0.8-0.4,1.4-0.6L212,20V21.4z M219.4,23.6c-0.2,0.1-0.6,0.1-1,0.1
		c-0.8,0-1.1-0.4-1.1-1.2v-5.7c0-2-0.6-3.5-1.9-4.5c-1.3-1-3.1-1.5-5.6-1.5c-2.1,0-3.7,0.4-5,1.3c-1.2,0.8-2,2-2.3,3.5l4.3,1.3
		c0.1-0.9,0.5-1.5,1-1.8c0.5-0.4,1.1-0.6,1.9-0.6c0.7,0,1.2,0.2,1.6,0.6c0.4,0.4,0.6,1,0.6,1.7v0.6l-3.5,0.7
		c-2.2,0.4-3.7,1.1-4.7,1.9c-0.9,0.8-1.4,1.9-1.4,3.2c0,1.3,0.4,2.2,1.3,2.9c0.8,0.7,2,1,3.6,1c2.8,0,4.6-0.8,5.6-2.4
		c0.4,1.6,1.8,2.4,4,2.4c0.8,0,1.5-0.2,2.1-0.5L219.4,23.6z"/>
	<path class="st3" d="M172.8,44.4l-1.1,0.9c0.7,1,2.2,1.6,4.1,1.6c2.1,0,3.5-1.1,3.5-2.6c0-2-1.7-2.4-3.3-2.7
		c-1.3-0.3-2.2-0.5-2.2-1.4c0-0.7,0.6-1.2,1.8-1.2c1,0,2,0.3,2.5,0.9l1-1c-0.7-0.7-1.8-1.2-3.6-1.2c-2,0-3.3,1-3.3,2.5
		c0,1.9,1.7,2.3,3.4,2.7c1.3,0.3,2.2,0.6,2.2,1.5c0,0.8-0.6,1.3-2,1.3C174.7,45.5,173.6,45.3,172.8,44.4 M166.4,37.7h-6.1v9h6.2
		v-1.3h-4.7v-2.7h4.2v-1.2h-4.2V39h4.6V37.7z M117.2,37.7h-1.5v9h1.5v-3.9h4.8v3.9h1.5v-9h-1.5v3.7h-4.8V37.7z M102,44l-1.5,1.3
		c0.8,0.9,2.3,1.5,4.5,1.5c2.4,0,3.9-1.1,3.9-2.8c0-2.1-1.8-2.5-3.6-2.8c-1.4-0.2-2.1-0.4-2.1-1.1c0-0.5,0.5-0.8,1.7-0.8
		c1,0,2,0.3,2.5,0.7l1.3-1.4c-0.7-0.6-1.9-1.1-3.9-1.1c-2.1,0-3.8,0.9-3.8,2.7c0,2.1,1.9,2.5,3.7,2.8c1.4,0.2,2,0.4,2,1.1
		c0,0.6-0.5,0.9-1.8,0.9C103.9,45.1,102.8,44.8,102,44 M89.9,42.9l1.4-3.3h0.4l1.4,3.3H89.9z M90.1,37.6l-3.9,9.1h2.1l0.9-2h4.7
		l0.9,2h2.1l-3.9-9.1H90.1z M67.8,37.6H61v9.1h6.8v-1.8h-4.6V43h4.2l0-1.7h-4.2v-1.7h4.6V37.6z M21.3,13.6l3.1-3.5
		c-1.2-1.3-2.5-2.3-3.9-2.9c-1.4-0.6-3.1-0.9-5-0.9c-1.8,0-3.4,0.3-4.8,0.9C9.3,7.8,8.3,8.6,7.6,9.6c-0.7,1-1.1,2.2-1.1,3.5
		c0,1.3,0.3,2.4,1,3.2c0.6,0.8,1.5,1.5,2.7,2c1.2,0.5,2.6,0.9,4.4,1.3c1.4,0.3,2.5,0.6,3.1,0.9c0.6,0.3,0.9,0.7,0.9,1.2
		c0,0.6-0.3,1.1-0.9,1.4c-0.6,0.3-1.4,0.5-2.6,0.5c-1.4,0-2.7-0.2-3.7-0.7c-1-0.5-2-1.3-2.8-2.4l-2.8,3.8c1.1,1.2,2.3,2.1,3.8,2.7
		c1.5,0.6,3.4,0.9,5.7,0.9c1.7,0,3.2-0.3,4.5-0.8c1.3-0.5,2.4-1.2,3.1-2.2c0.8-1,1.1-2.1,1.1-3.4c0-1.8-0.6-3.2-1.8-4.2
		c-1.2-1-3.3-1.8-6.2-2.3c-1.5-0.3-2.5-0.6-3.2-0.9c-0.6-0.3-0.9-0.7-0.9-1.3c0-0.6,0.3-1.1,0.9-1.5c0.6-0.4,1.4-0.6,2.5-0.6
		c1.3,0,2.4,0.2,3.4,0.7C19.8,11.8,20.6,12.5,21.3,13.6 M37.7,19.5c0,1.5-0.2,2.6-0.7,3.3c-0.5,0.7-1.2,1-2.2,1c-1,0-1.8-0.3-2.2-1
		c-0.5-0.7-0.7-1.8-0.7-3.3c0-1.5,0.2-2.6,0.7-3.3c0.5-0.7,1.2-1,2.2-1c1,0,1.8,0.3,2.2,1C37.5,16.9,37.7,18,37.7,19.5 M40.9,25.6
		c1.5-1.4,2.2-3.4,2.2-6c0-2.6-0.7-4.6-2.2-6c-1.5-1.4-3.5-2.2-6.1-2.2c-2.6,0-4.7,0.7-6.1,2.2c-1.5,1.4-2.2,3.4-2.2,6
		c0,2.6,0.7,4.6,2.2,6c1.5,1.4,3.5,2.2,6.1,2.2C37.4,27.7,39.4,27,40.9,25.6 M49.1,42.9l1.4-3.3h0.4l1.4,3.3H49.1z M49.3,37.6
		l-3.9,9.1h2.1l0.9-2h4.7l0.9,2h2.1l-3.9-9.1H49.3z M57.1,27.4h4.8V11.7h-5.4V20c0,1.2-0.3,2.1-0.8,2.7c-0.5,0.6-1.2,0.9-2.1,0.9
		c-0.7,0-1.3-0.2-1.6-0.6c-0.4-0.4-0.5-1.1-0.5-2.2v-9.2h-5.4v10.5c0,1.9,0.5,3.3,1.4,4.2c1,0.9,2.3,1.3,3.9,1.3
		c2.6,0,4.5-1.1,5.4-3.2L57.1,27.4z M73.7,26.9l0.3-3.3c-0.6,0.2-1.1,0.3-1.6,0.3c-0.5,0-0.9-0.1-1.1-0.4C71.1,23.2,71,22.7,71,22V5
		h-5.3v17.8c0,1.7,0.4,3,1.1,3.8c0.8,0.8,2,1.2,3.7,1.2c0.6,0,1.2-0.1,1.8-0.2C72.8,27.4,73.3,27.2,73.7,26.9 M80,42.2
		c0,1.9-1,2.7-2.8,2.7h-1.2v-5.3h1C79,39.5,80,40.2,80,42.2 M82.1,42.2c0-3.6-2.4-4.5-5.1-4.5h-3.3v9.1h3.1
		C79.6,46.7,82.1,45.8,82.1,42.2 M104.2,27.4h4.8V6.6h-7.4l-3.2,10.6l-1.2,4.4h-0.1l-1.2-4.4L92.6,6.6h-7.7v20.8h4.8v-9.5l-0.2-6.4
		h0.1l5.1,15.9h4.4l5.1-15.9h0.1l-0.2,6.4V27.4z M121.9,22c0,0.7-0.3,1.2-0.9,1.6c-0.6,0.4-1.2,0.6-2,0.6c-0.5,0-0.9-0.1-1.1-0.3
		c-0.3-0.2-0.4-0.6-0.4-1c0-0.4,0.1-0.8,0.4-1c0.3-0.2,0.8-0.4,1.4-0.6l2.5-0.6V22z M128.9,27.2l0.4-3c-0.3,0.1-0.6,0.1-1,0.1
		c-0.8,0-1.1-0.4-1.1-1.2v-5.7c0-2-0.6-3.5-1.9-4.5c-1.3-1-3.1-1.5-5.6-1.5c-2.1,0-3.8,0.4-5,1.3c-1.2,0.9-2,2-2.3,3.6l4.3,1.3
		c0.1-0.9,0.5-1.5,1-1.9c0.5-0.4,1.2-0.6,2-0.6c0.7,0,1.2,0.2,1.6,0.6c0.4,0.4,0.6,1,0.6,1.7v0.6l-3.6,0.7c-2.2,0.4-3.8,1.1-4.7,1.9
		c-1,0.8-1.4,1.9-1.4,3.3c0,1.3,0.4,2.3,1.3,2.9c0.8,0.7,2,1,3.6,1c2.8,0,4.7-0.8,5.6-2.4c0.4,1.6,1.8,2.4,4.1,2.4
		C127.5,27.7,128.3,27.6,128.9,27.2 M133.8,38.9c1.6,0,3.1,1.1,3.1,3.3c0,2.3-1.5,3.3-3.1,3.3c-1.6,0-3.1-1.1-3.1-3.3
		C130.6,39.9,132.1,38.9,133.8,38.9 M133.8,37.5c-2.2,0-4.7,1.5-4.7,4.7c0,3.2,2.5,4.7,4.7,4.7c2.2,0,4.7-1.4,4.7-4.7
		C138.4,39,136,37.5,133.8,37.5 M142.2,16.2l0.6-4.5c-0.4-0.2-1-0.3-1.7-0.3c-1.2,0-2.2,0.3-3,1c-0.8,0.6-1.4,1.6-1.8,2.8l-0.2-3.4
		h-4.7v15.7h5.4v-7.9c0-1.2,0.3-2.1,1-2.8c0.7-0.6,1.5-1,2.5-1c0.4,0,0.8,0,1.1,0.1C141.8,16,142,16.1,142.2,16.2 M145.9,37.7h-2v9
		h1.4v-6.9l2.9,6.9h1.2l2.9-6.9v6.9h1.5v-9h-2l-2.9,7.1L145.9,37.7z M156.1,19.5c0,1.4-0.3,2.5-0.8,3.2c-0.5,0.7-1.2,1-2.2,1
		c-0.9,0-1.6-0.3-2.1-1c-0.5-0.7-0.8-1.7-0.8-3.1v-0.3c0-1.3,0.3-2.3,0.8-3c0.5-0.7,1.2-1.1,2.1-1.1c0.9,0,1.7,0.3,2.2,1
		C155.9,17,156.1,18.1,156.1,19.5 M159.8,25.6c1.1-1.4,1.7-3.4,1.7-6c0-2.6-0.6-4.6-1.7-6.1c-1.2-1.4-2.7-2.2-4.8-2.2
		c-1.1,0-2.1,0.3-2.9,0.8c-0.8,0.5-1.4,1.2-1.9,2.2V5h-5.4v22.4h4.7l0.2-3.3c0.4,1.1,1.1,2,2,2.7c0.9,0.7,2,1,3.2,1
		C157.1,27.7,158.7,27,159.8,25.6 M175,18.2h-5.9c0.3-2.1,1.3-3.1,3-3.1C173.8,15.1,174.8,16.1,175,18.2 M179.9,21.1
		c0.1-0.5,0.2-1,0.2-1.8c0-2.5-0.7-4.5-2-5.9c-1.4-1.4-3.3-2.1-5.8-2.1c-2.6,0-4.6,0.7-6.1,2.1c-1.4,1.4-2.1,3.4-2.1,6
		c0,2.6,0.7,4.6,2.2,6c1.5,1.4,3.6,2.1,6.3,2.1c1.8,0,3.4-0.4,4.7-1.1c1.3-0.7,2.1-1.7,2.6-3.1l-4.3-1.4c-0.2,0.6-0.5,1-1,1.3
		c-0.5,0.3-1.1,0.4-1.9,0.4c-0.9,0-1.7-0.2-2.2-0.7c-0.6-0.5-0.9-1.2-1.1-2.2H179.9z M191,26.9l0.3-3.3c-0.6,0.2-1.1,0.3-1.6,0.3
		c-0.5,0-0.9-0.1-1.1-0.4c-0.2-0.3-0.3-0.8-0.3-1.5V5h-5.4v17.8c0,1.7,0.4,3,1.1,3.8c0.8,0.8,2,1.2,3.7,1.2c0.6,0,1.2-0.1,1.8-0.2
		C190.1,27.4,190.6,27.2,191,26.9 M201.3,26.9l0.3-3.3c-0.6,0.2-1.1,0.3-1.6,0.3c-0.5,0-0.9-0.1-1.1-0.4c-0.2-0.3-0.3-0.8-0.3-1.5V5
		h-5.3v17.8c0,1.7,0.4,3,1.1,3.8c0.8,0.8,2,1.2,3.7,1.2c0.6,0,1.2-0.1,1.8-0.2C200.4,27.4,200.9,27.2,201.3,26.9 M212.4,22
		c0,0.7-0.3,1.2-0.9,1.6c-0.6,0.4-1.2,0.6-2,0.6c-0.5,0-0.9-0.1-1.1-0.3c-0.3-0.2-0.4-0.6-0.4-1c0-0.4,0.1-0.8,0.4-1
		c0.3-0.2,0.8-0.4,1.4-0.6l2.5-0.6V22z M219.8,24.2c-0.3,0.1-0.6,0.1-1,0.1c-0.8,0-1.1-0.4-1.1-1.2v-5.7c0-2-0.6-3.5-1.9-4.5
		c-1.3-1-3.1-1.5-5.6-1.5c-2.1,0-3.8,0.4-5,1.3c-1.2,0.9-2,2-2.3,3.6l4.3,1.3c0.1-0.9,0.5-1.5,1-1.9c0.5-0.4,1.2-0.6,2-0.6
		c0.7,0,1.2,0.2,1.6,0.6c0.4,0.4,0.6,1,0.6,1.7v0.6l-3.6,0.7c-2.2,0.4-3.8,1.1-4.7,1.9c-1,0.8-1.4,1.9-1.4,3.3
		c0,1.3,0.4,2.3,1.3,2.9c0.8,0.7,2,1,3.6,1c2.8,0,4.7-0.8,5.6-2.4c0.4,1.6,1.8,2.4,4.1,2.4c0.8,0,1.5-0.2,2.1-0.5L219.8,24.2z"/>
</svg>
